<?xml version="1.0" encoding="UTF-8"?>
<svg version="1.1" xmlns="http://www.w3.org/2000/svg" width="400" height="400">
<path d="M0 0 C18.28046509 15.83266885 31.44709695 37.42681111 33.50004578 61.92556763 C33.65810058 64.48368989 33.77834877 67.04067584 33.8828125 69.6015625 C33.94492165 71.11888977 33.94492165 71.11888977 34.00828552 72.66687012 C34.59540104 89.24201573 34.42212684 105.83769278 34.38116455 122.42041016 C34.37076703 127.0875604 34.36633245 131.75471641 34.36132812 136.421875 C34.3507383 145.51043135 34.3337678 154.59896279 34.3125 163.6875 C35.55483398 163.69336624 36.79716797 163.69923248 38.07714844 163.70527649 C49.84520422 163.76275086 61.61307959 163.83563938 73.38095093 163.92321491 C79.42940919 163.96774259 85.4778028 164.00703661 91.52636719 164.03393555 C97.37501393 164.06014522 103.22340954 164.10066981 109.07189941 164.15068626 C111.29151256 164.1672364 113.51116903 164.17882381 115.73083496 164.18511391 C147.3404439 164.28366157 171.4553085 171.38780818 194.5625 193.625 C211.55379938 211.09946429 219.74253141 233.89073163 219.625 258 C219.62008545 259.19189941 219.6151709 260.38379883 219.61010742 261.61181641 C219.49798201 270.02409748 218.93473983 277.64175209 216.3125 285.6875 C215.96058594 286.77546875 215.60867188 287.8634375 215.24609375 288.984375 C206.82423089 312.66565275 189.38946639 331.46661306 167.25 343 C144.08383123 354.00393017 116.41671724 355.44043393 92.18115234 346.93994141 C68.11755835 337.9882185 49.69125995 319.18261218 38.5625 296.3125 C33.31921933 284.23169792 31.14827518 271.62447929 31.19897461 258.52954102 C31.19882858 257.53365463 31.19868256 256.53776825 31.1985321 255.51170349 C31.19922567 252.23824849 31.20699195 248.96485124 31.21484375 245.69140625 C31.21670991 243.41454601 31.21813288 241.13768537 31.21913147 238.86082458 C31.22294108 232.88171267 31.23275805 226.90262523 31.24383545 220.92352295 C31.25408306 214.81685721 31.25863626 208.7101875 31.26367188 202.60351562 C31.27438174 190.63149969 31.29143943 178.65950189 31.3125 166.6875 C30.70861293 166.71787479 30.10472586 166.74824959 29.48253918 166.77954483 C16.50193653 167.4203014 3.57717859 167.83600166 -9.41796875 167.671875 C-10.99628037 167.65506411 -12.57459362 167.63840559 -14.15290833 167.62188721 C-17.4154076 167.5860033 -20.67779204 167.54491565 -23.94018555 167.50048828 C-27.23540884 167.45633652 -30.53050983 167.42176123 -33.82592773 167.39599609 C-79.47911945 167.03441405 -79.47911945 167.03441405 -95.75 160.4375 C-96.92598755 159.97863403 -96.92598755 159.97863403 -98.12573242 159.51049805 C-104.50856851 156.93450406 -110.21939185 153.90050146 -115.6875 149.6875 C-116.23212891 149.26871582 -116.77675781 148.84993164 -117.33789062 148.41845703 C-137.50114352 132.67355751 -150.95066149 110.86092611 -154.37109375 85.25390625 C-156.70713283 58.92299667 -150.99374116 32.92504083 -133.8984375 12.2109375 C-100.22914304 -26.63305641 -40.07267332 -33.55707577 0 0 Z " fill="#1DAEFD" transform="translate(165.6875,28.3125)"/>
<path d="M0 0 C11.03621701 9.50649285 20.82262189 19.51341418 22.8125 34.4375 C23.09987741 37.8254411 23.09987741 37.8254411 25.3125 40.6875 C25.3125 41.6775 25.3125 42.6675 25.3125 43.6875 C25.9725 43.6875 26.6325 43.6875 27.3125 43.6875 C27.498125 45.481875 27.498125 45.481875 27.6875 47.3125 C28.14012681 50.97231107 29.04926132 54.21359364 30.3125 57.6875 C31.5475116 61.96792617 31.44482033 66.16489157 31.42602539 70.58691406 C31.42617142 71.48482666 31.42631744 72.38273926 31.4264679 73.30786133 C31.42577176 76.27297387 31.41799329 79.23802344 31.41015625 82.203125 C31.40829101 84.26007045 31.40686761 86.31701635 31.40586853 88.3739624 C31.4020517 93.78594185 31.39222851 99.19789444 31.38116455 104.60986328 C31.37093252 110.13313432 31.36636707 115.65640971 31.36132812 121.1796875 C31.35060552 132.0156368 31.33353907 142.85156616 31.3125 153.6875 C30.6525 153.6875 29.9925 153.6875 29.3125 153.6875 C29.3125 154.3475 29.3125 155.0075 29.3125 155.6875 C29.9725 155.6875 30.6325 155.6875 31.3125 155.6875 C31.3125 157.9975 31.3125 160.3075 31.3125 162.6875 C26.89035605 164.96557416 24.13880202 164.40826101 19.3125 163.6875 C16.83419868 163.60903603 14.35403379 163.57962953 11.87451172 163.58984375 C11.16595032 163.59130402 10.45738892 163.59276428 9.72735596 163.5942688 C8.19802012 163.59805352 6.66868857 163.6041473 5.13936996 163.61233521 C2.69667436 163.62524046 0.25403399 163.63165249 -2.18869019 163.63647461 C-8.26677281 163.64976649 -14.344804 163.67371614 -20.42285156 163.69787598 C-56.90929593 163.84037432 -56.90929593 163.84037432 -69.4296875 163.375 C-70.25711456 163.35252197 -71.08454163 163.33004395 -71.93704224 163.30688477 C-77.23671502 163.051063 -77.23671502 163.051063 -79.54736328 161.1875 C-79.9236084 160.6925 -80.29985352 160.1975 -80.6875 159.6875 C-83.48303253 158.91872855 -85.7819101 158.6875 -88.6875 158.6875 C-90.61785056 158.10613711 -92.53333393 157.47460851 -94.4375 156.8125 C-97.83763435 155.6421639 -101.20263305 154.51136833 -104.6875 153.625 C-107.64597459 152.70047669 -109.49920438 151.87579562 -111.6875 149.6875 C-111.6875 148.6975 -111.6875 147.7075 -111.6875 146.6875 C-112.6775 146.6875 -113.6675 146.6875 -114.6875 146.6875 C-114.914375 145.883125 -115.14125 145.07875 -115.375 144.25 C-115.808125 143.404375 -116.24125 142.55875 -116.6875 141.6875 C-118.34878463 141.32830332 -120.01650023 140.99838368 -121.6875 140.6875 C-123.39336575 139.06097684 -125.0652546 137.39743434 -126.6875 135.6875 C-127.3475 135.6875 -128.0075 135.6875 -128.6875 135.6875 C-128.6875 134.3675 -128.6875 133.0475 -128.6875 131.6875 C-129.409375 131.625625 -130.13125 131.56375 -130.875 131.5 C-137.17787444 129.67916961 -140.12071166 123.79031867 -143.2109375 118.41015625 C-155.54296921 95.67093375 -158.19214561 69.49712393 -151.1015625 44.6328125 C-143.72874665 20.87596144 -127.74240795 1.06977045 -105.73657227 -10.64672852 C-71.57021911 -28.00061432 -29.7225373 -24.87402677 0 0 Z " fill="#3979FD" transform="translate(165.6875,28.3125)"/>
<path d="M0 0 C1.35585284 0.00081715 1.35585284 0.00081715 2.73909664 0.00165081 C3.77534176 -0.00254368 4.81158688 -0.00673817 5.87923336 -0.01105976 C7.0206126 -0.00544025 8.16199184 0.00017925 9.33795834 0.00596905 C10.53633327 0.0040707 11.73470821 0.00217236 12.96939754 0.00021648 C16.26065672 -0.00285937 19.5516661 0.00303135 22.84289575 0.01316953 C26.28175442 0.02193786 29.72060871 0.02019283 33.15947628 0.01980877 C38.9339999 0.02074586 44.70847103 0.02943649 50.48297787 0.04307842 C57.16767528 0.05881186 63.85231521 0.0640763 70.5370298 0.06334287 C76.95815269 0.06273341 83.37925678 0.06783088 89.80037403 0.07613468 C92.53760519 0.07967329 95.27482969 0.08149875 98.01206303 0.08202839 C101.82904897 0.08321557 105.64598666 0.09291204 109.46295834 0.1036253 C110.60636181 0.10317211 111.74976528 0.10271893 112.92781734 0.10225201 C114.47795528 0.10864948 114.47795528 0.10864948 116.05940914 0.1151762 C117.41469644 0.11768997 117.41469644 0.11768997 118.79736328 0.12025452 C120.83576107 0.24888897 120.83576107 0.24888897 121.83576107 1.24888897 C121.93179129 2.86845237 121.95763962 4.4922198 121.95601559 6.11462688 C121.95807758 7.69434277 121.95807758 7.69434277 121.96018124 9.3059721 C121.95478832 11.05384266 121.95478832 11.05384266 121.94928646 12.83702374 C121.94943249 14.05636608 121.94957851 15.27570843 121.94972897 16.53200054 C121.94915 19.88516408 121.94412075 23.23826671 121.93715501 26.59141946 C121.9309209 30.09214459 121.93031763 33.59287045 121.9291296 37.09360027 C121.92601645 43.72698553 121.91780329 50.36035438 121.90778011 56.99373239 C121.89661846 64.54379104 121.89110839 72.09385046 121.88608468 79.6439153 C121.87562066 95.17891603 121.85802154 110.71390039 121.83576107 126.24888897 C105.55505804 126.27221799 89.2743604 126.28986816 72.99364471 126.30070114 C65.43474488 126.30586409 57.87585542 126.31290677 50.31696224 126.32432842 C43.73096441 126.33427529 37.14497409 126.3407424 30.55896896 126.34297746 C27.06963036 126.34428457 23.58031323 126.34737039 20.09098148 126.35461903 C16.20194875 126.36263295 12.31293729 126.36288011 8.42389584 126.36241436 C7.2586488 126.36600964 6.09340176 126.36960491 4.8928442 126.37330914 C3.31312832 126.37124714 3.31312832 126.37124714 1.70149899 126.36914349 C0.3201922 126.37052618 0.3201922 126.37052618 -1.08901978 126.3719368 C-3.16423893 126.24888897 -3.16423893 126.24888897 -4.16423893 125.24888897 C-4.26455038 123.65930987 -4.29499751 122.06527536 -4.2979517 120.47253704 C-4.30221668 119.43911175 -4.30648167 118.40568645 -4.31087589 117.34094524 C-4.31042271 116.19754177 -4.30996952 115.0541383 -4.3095026 113.87608624 C-4.31286121 112.67946362 -4.31621983 111.482841 -4.31968021 110.24995708 C-4.32757592 106.95864536 -4.33085915 103.66739669 -4.331496 100.3760798 C-4.33244351 97.63241294 -4.33611998 94.88875218 -4.3396681 92.14508766 C-4.34782018 85.67406974 -4.35025165 79.20306573 -4.34954166 72.73204327 C-4.34894069 66.0479344 -4.35949456 59.36390619 -4.37528533 52.67981774 C-4.38834354 46.94902431 -4.39372629 41.21825731 -4.39308625 35.48744911 C-4.39283075 32.06123139 -4.39571037 28.63508529 -4.40626431 25.20888233 C-4.41770719 21.38958464 -4.41320902 17.57039832 -4.40715885 13.75108624 C-4.41277836 12.60970699 -4.41839787 11.46832775 -4.42418766 10.29236126 C-4.41999317 9.25611614 -4.41579868 8.21987103 -4.41147709 7.15222454 C-4.41202186 6.24832265 -4.41256662 5.34442076 -4.4131279 4.4131279 C-4.0594974 1.33809856 -3.07502934 0.35363049 0 0 Z " fill="#3C74FE" transform="translate(246.16423892974854,23.751111030578613)"/>
<path d="M0 0 C14.16203959 12.13297544 22.74413742 28.5045878 24.25390625 47.1328125 C24.8853093 65.01577638 19.32923497 81.741267 7.6015625 95.33203125 C-5.22143879 108.48234638 -20.99919008 115.99045185 -39.53369141 116.43115234 C-58.42121517 116.47741913 -74.43815882 111.09696153 -88.359375 97.83203125 C-101.35749077 83.89174437 -107.55572296 67.84502467 -107.25 48.87109375 C-106.09706094 31.01855301 -98.97693895 14.99816448 -85.9765625 2.62109375 C-81.93347578 -0.69487658 -77.51145843 -3.3743181 -73 -6 C-72.30777344 -6.40347656 -71.61554688 -6.80695313 -70.90234375 -7.22265625 C-48.36025628 -19.39630924 -20.00094689 -14.91499182 0 0 Z " fill="#1AB3FD" transform="translate(135,247)"/>
<path d="M0 0 C1.35585284 0.00081715 1.35585284 0.00081715 2.73909664 0.00165081 C3.77534176 -0.00254368 4.81158688 -0.00673817 5.87923336 -0.01105976 C7.0206126 -0.00544025 8.16199184 0.00017925 9.33795834 0.00596905 C10.53633327 0.0040707 11.73470821 0.00217236 12.96939754 0.00021648 C16.26065672 -0.00285937 19.5516661 0.00303135 22.84289575 0.01316953 C26.28175442 0.02193786 29.72060871 0.02019283 33.15947628 0.01980877 C38.9339999 0.02074586 44.70847103 0.02943649 50.48297787 0.04307842 C57.16767528 0.05881186 63.85231521 0.0640763 70.5370298 0.06334287 C76.95815269 0.06273341 83.37925678 0.06783088 89.80037403 0.07613468 C92.53760519 0.07967329 95.27482969 0.08149875 98.01206303 0.08202839 C101.82904897 0.08321557 105.64598666 0.09291204 109.46295834 0.1036253 C110.60636181 0.10317211 111.74976528 0.10271893 112.92781734 0.10225201 C114.47795528 0.10864948 114.47795528 0.10864948 116.05940914 0.1151762 C117.41469644 0.11768997 117.41469644 0.11768997 118.79736328 0.12025452 C120.83576107 0.24888897 120.83576107 0.24888897 121.83576107 1.24888897 C121.93179129 2.86845237 121.95763962 4.4922198 121.95601559 6.11462688 C121.95807758 7.69434277 121.95807758 7.69434277 121.96018124 9.3059721 C121.95478832 11.05384266 121.95478832 11.05384266 121.94928646 12.83702374 C121.94943249 14.05636608 121.94957851 15.27570843 121.94972897 16.53200054 C121.94915 19.88516408 121.94412075 23.23826671 121.93715501 26.59141946 C121.9309209 30.09214459 121.93031763 33.59287045 121.9291296 37.09360027 C121.92601645 43.72698553 121.91780329 50.36035438 121.90778011 56.99373239 C121.89661846 64.54379104 121.89110839 72.09385046 121.88608468 79.6439153 C121.87562066 95.17891603 121.85802154 110.71390039 121.83576107 126.24888897 C105.55505804 126.27221799 89.2743604 126.28986816 72.99364471 126.30070114 C65.43474488 126.30586409 57.87585542 126.31290677 50.31696224 126.32432842 C43.73096441 126.33427529 37.14497409 126.3407424 30.55896896 126.34297746 C27.06963036 126.34428457 23.58031323 126.34737039 20.09098148 126.35461903 C16.20194875 126.36263295 12.31293729 126.36288011 8.42389584 126.36241436 C7.2586488 126.36600964 6.09340176 126.36960491 4.8928442 126.37330914 C3.31312832 126.37124714 3.31312832 126.37124714 1.70149899 126.36914349 C0.3201922 126.37052618 0.3201922 126.37052618 -1.08901978 126.3719368 C-3.16423893 126.24888897 -3.16423893 126.24888897 -4.16423893 125.24888897 C-4.26455038 123.65930987 -4.29499751 122.06527536 -4.2979517 120.47253704 C-4.30221668 119.43911175 -4.30648167 118.40568645 -4.31087589 117.34094524 C-4.31042271 116.19754177 -4.30996952 115.0541383 -4.3095026 113.87608624 C-4.31286121 112.67946362 -4.31621983 111.482841 -4.31968021 110.24995708 C-4.32757592 106.95864536 -4.33085915 103.66739669 -4.331496 100.3760798 C-4.33244351 97.63241294 -4.33611998 94.88875218 -4.3396681 92.14508766 C-4.34782018 85.67406974 -4.35025165 79.20306573 -4.34954166 72.73204327 C-4.34894069 66.0479344 -4.35949456 59.36390619 -4.37528533 52.67981774 C-4.38834354 46.94902431 -4.39372629 41.21825731 -4.39308625 35.48744911 C-4.39283075 32.06123139 -4.39571037 28.63508529 -4.40626431 25.20888233 C-4.41770719 21.38958464 -4.41320902 17.57039832 -4.40715885 13.75108624 C-4.41277836 12.60970699 -4.41839787 11.46832775 -4.42418766 10.29236126 C-4.41999317 9.25611614 -4.41579868 8.21987103 -4.41147709 7.15222454 C-4.41202186 6.24832265 -4.41256662 5.34442076 -4.4131279 4.4131279 C-4.0594974 1.33809856 -3.07502934 0.35363049 0 0 Z M0.83576107 5.24888897 C-0.12386455 8.78270557 -0.2647196 11.87530416 -0.22673893 15.54967022 C-0.21836002 16.81915508 -0.20998112 18.08863995 -0.2013483 19.39659405 C-0.19514469 20.07299938 -0.18894108 20.74940472 -0.18254948 21.44630718 C-0.08396974 32.83341712 -0.20458385 44.18141987 -0.66423893 55.56138897 C-1.23049909 70.24765198 -1.27806616 84.92800989 -1.28923893 99.62388897 C-1.29173649 100.7873988 -1.29423405 101.95090862 -1.29680729 103.14967632 C-1.30266283 106.46142393 -1.30122567 109.77307797 -1.29705143 113.08482647 C-1.29903538 114.09682613 -1.30101933 115.1088258 -1.30306339 116.15149212 C-1.29995152 117.0735696 -1.29683964 117.99564709 -1.29363346 118.94566631 C-1.29283787 119.75595287 -1.29204227 120.56623943 -1.29122257 121.40108013 C-1.36635927 123.26575666 -1.36635927 123.26575666 -0.16423893 124.24888897 C1.37929238 124.34473895 2.92721215 124.37076967 4.47371578 124.36914349 C5.47637478 124.37051815 6.47903378 124.37189281 7.51207638 124.37330914 C8.62121899 124.36971386 9.7303616 124.36611858 10.87311459 124.36241436 C12.61434597 124.3626334 12.61434597 124.3626334 14.39075375 124.36285686 C18.24874359 124.36215714 22.10668585 124.35436195 25.96466732 124.34654522 C28.63124835 124.34468125 31.29782671 124.34320809 33.96440792 124.3422575 C40.27904987 124.33914445 46.59367458 124.33093141 52.90830892 124.32090801 C60.0956174 124.30974607 67.28292668 124.30423622 74.47024167 124.29921257 C89.25875696 124.28874877 104.04725872 124.27114983 118.83576107 124.24888897 C119.97449834 121.97141443 119.96243273 120.72298395 119.9651556 118.19371319 C119.96826244 117.34598339 119.97136929 116.49825359 119.97457027 115.62483501 C119.97259136 114.69381969 119.97061245 113.76280437 119.96857357 112.80357647 C119.96993816 111.8263966 119.97130276 110.84921673 119.9727087 109.84242535 C119.97475706 106.60288026 119.96835632 103.36342499 119.96076107 100.12388897 C119.9595425 99.01642315 119.95832394 97.90895733 119.95706844 96.76793194 C119.93543693 79.92499872 119.74527275 63.0881755 119.39826107 46.24888897 C119.37870358 45.2661198 119.35914608 44.28335064 119.33899593 43.27080059 C119.08635324 30.91156153 118.61162456 18.58654636 117.83576107 6.24888897 C117.50576107 6.90888897 117.17576107 7.56888897 116.83576107 8.24888897 C115.84576107 7.58888897 114.85576107 6.92888897 113.83576107 6.24888897 C111.50376719 6.16983833 109.16743485 6.16090128 106.83576107 6.24888897 C106.83576107 5.25888897 106.83576107 4.26888897 106.83576107 3.24888897 C95.52522223 3.20225847 84.21470679 3.16686532 72.90409088 3.14526463 C67.65040374 3.13489003 62.39678304 3.12084844 57.14313412 3.09801006 C52.05970717 3.07605352 46.97634357 3.06427299 41.89287281 3.05913448 C39.96710814 3.0554792 38.04134638 3.04834336 36.11560917 3.03742886 C24.19536507 2.97264248 12.63927832 3.54085864 0.83576107 5.24888897 Z " fill="#4972E2" transform="translate(246.16423892974854,23.751111030578613)"/>
<path d="M0 0 C8.64217604 7.06129018 11.81601466 23.64334106 13 34 C14.70524805 54.81828415 14.12021112 75.86537132 14.06866455 96.73291016 C14.05826703 101.4000604 14.05383245 106.06721641 14.04882812 110.734375 C14.0382383 119.82293135 14.0212678 128.91146279 14 138 C15.87682465 138.01213028 15.87682465 138.01213028 17.79156494 138.02450562 C29.61969586 138.10220391 41.44771509 138.1900019 53.27569962 138.28752708 C59.35565182 138.33733782 65.43558792 138.38366863 71.515625 138.421875 C77.39013964 138.45892078 83.26451435 138.50533178 89.13890839 138.55806351 C91.37299886 138.57650539 93.6071192 138.59165042 95.84125519 138.60334396 C118.32184588 138.72515284 118.32184588 138.72515284 128 141 C128 141.33 128 141.66 128 142 C90.05 141.67 52.1 141.34 13 141 C13.144375 158.69625 13.28875 176.3925 13.4375 194.625 C13.48060303 200.20873535 13.52370605 205.7924707 13.56811523 211.54541016 C13.61137733 216.55888922 13.61137733 216.55888922 13.65589905 221.57235718 C13.67509617 223.8020792 13.692424 226.03181779 13.70826721 228.26156616 C13.73265664 231.64269307 13.76301227 235.0237196 13.79467773 238.40478516 C13.80044799 239.39497965 13.80621824 240.38517414 13.81216335 241.40537453 C13.86171444 246.04457935 14.04907744 250.43675115 15 255 C15.66 255 16.32 255 17 255 C17.69761537 257.60183588 18.38337774 260.20583602 19.0625 262.8125 C19.36124023 263.91948242 19.36124023 263.91948242 19.66601562 265.04882812 C21.11328125 270.66015625 21.11328125 270.66015625 20 274 C13.94131794 260.49368901 10.82916956 247.64311751 10.88647461 232.84204102 C10.88632858 231.84615463 10.88618256 230.85026825 10.8860321 229.82420349 C10.88672567 226.55074849 10.89449195 223.27735124 10.90234375 220.00390625 C10.90420991 217.72704601 10.90563288 215.45018537 10.90663147 213.17332458 C10.91044108 207.19421267 10.92025805 201.21512523 10.93133545 195.23602295 C10.94158306 189.12935721 10.94613626 183.0226875 10.95117188 176.91601562 C10.96188174 164.94399969 10.97893943 152.97200189 11 141 C10.39611293 141.03037479 9.79222586 141.06074959 9.17003918 141.09204483 C-3.81056347 141.7328014 -16.73532141 142.14850166 -29.73046875 141.984375 C-31.30878037 141.96756411 -32.88709362 141.95090559 -34.46540833 141.93438721 C-37.7279076 141.8985033 -40.99029204 141.85741565 -44.25268555 141.81298828 C-47.54790884 141.76883652 -50.84300983 141.73426123 -54.13842773 141.70849609 C-99.79161945 141.34691405 -99.79161945 141.34691405 -116.0625 134.75 C-117.23848755 134.29113403 -117.23848755 134.29113403 -118.43823242 133.82299805 C-132.66408788 128.08170724 -145.46507308 118.01686482 -155 106 C-154.505 105.01 -154.505 105.01 -154 104 C-152.35 104.66 -150.7 105.32 -149 106 C-149 107.32 -149 108.64 -149 110 C-147.515 109.505 -147.515 109.505 -146 109 C-143.7522025 111.05233685 -142.9977758 112.00667261 -142 115 C-140.02 115 -138.04 115 -136 115 C-135.67 116.98 -135.34 118.96 -135 121 C-134.01 121 -133.02 121 -132 121 C-132 121.99 -132 122.98 -132 124 C-128.69422322 125.80533926 -125.35743597 126.8732209 -121.75 127.9375 C-117.88510879 129.09262479 -114.11325046 130.29774424 -110.375 131.8125 C-107.0685334 133.3634975 -107.0685334 133.3634975 -104 132 C-101.40434522 133.02253067 -99.98953324 134.01046676 -98 136 C-95.30327872 136.37432881 -95.30327872 136.37432881 -92.09887695 136.4140625 C-90.85148239 136.45281494 -89.60408783 136.49156738 -88.31889343 136.53149414 C-86.93786999 136.56327493 -85.5568319 136.5944242 -84.17578125 136.625 C-82.73821991 136.66312741 -81.30066404 136.70146156 -79.8631134 136.73999023 C-62.97352292 137.16221425 -46.08065241 137.07488295 -29.1875 137 C-23.68878436 136.97620149 -18.19009443 136.95604476 -12.69133949 136.94406128 C-10.52475142 136.93763142 -8.35825449 136.92516297 -6.19169617 136.91235352 C-4.89375626 136.90905029 -3.59581635 136.90574707 -2.25854492 136.90234375 C-1.11818283 136.89710693 0.02217926 136.89187012 1.19709778 136.88647461 C4 137 4 137 7 138 C9.14255793 137.61067144 9.14255793 137.61067144 11 137 C11 134.69 11 132.38 11 130 C10.34 130 9.68 130 9 130 C9 129.34 9 128.68 9 128 C9.66 128 10.32 128 11 128 C10.91546142 116.16001851 10.82052571 104.32016976 10.71247292 92.48037815 C10.66261805 86.98214279 10.61628724 81.48392564 10.578125 75.9855957 C10.54113544 70.67518008 10.49473881 65.36492092 10.44193649 60.05463982 C10.42346502 58.03298639 10.40833059 56.01129951 10.39665604 53.98959541 C10.37966906 51.14858244 10.35060491 48.30792218 10.31884766 45.46704102 C10.31668747 44.63913055 10.31452728 43.81122009 10.31230164 42.95822144 C10.43769997 33.87899506 10.43769997 33.87899506 7 26 C6.85884839 23.32941149 6.95752893 20.67567762 7 18 C6.34 18 5.68 18 5 18 C2.77908549 13.70623194 1.76234292 9.76464323 1 5 C0.67364302 3.33195323 0.34274406 1.66475686 0 0 Z " fill="#4C95DE" transform="translate(186,54)"/>
<path d="M0 0 C1.35585284 0.00081715 1.35585284 0.00081715 2.73909664 0.00165081 C3.77534176 -0.00254368 4.81158688 -0.00673817 5.87923336 -0.01105976 C7.0206126 -0.00544025 8.16199184 0.00017925 9.33795834 0.00596905 C10.53633327 0.0040707 11.73470821 0.00217236 12.96939754 0.00021648 C16.26065672 -0.00285937 19.5516661 0.00303135 22.84289575 0.01316953 C26.28175442 0.02193786 29.72060871 0.02019283 33.15947628 0.01980877 C38.9339999 0.02074586 44.70847103 0.02943649 50.48297787 0.04307842 C57.16767528 0.05881186 63.85231521 0.0640763 70.5370298 0.06334287 C76.95815269 0.06273341 83.37925678 0.06783088 89.80037403 0.07613468 C92.53760519 0.07967329 95.27482969 0.08149875 98.01206303 0.08202839 C101.82904897 0.08321557 105.64598666 0.09291204 109.46295834 0.1036253 C110.60636181 0.10317211 111.74976528 0.10271893 112.92781734 0.10225201 C114.47795528 0.10864948 114.47795528 0.10864948 116.05940914 0.1151762 C117.41469644 0.11768997 117.41469644 0.11768997 118.79736328 0.12025452 C120.83576107 0.24888897 120.83576107 0.24888897 121.83576107 1.24888897 C121.93179129 2.86845237 121.95763962 4.4922198 121.95601559 6.11462688 C121.95807758 7.69434277 121.95807758 7.69434277 121.96018124 9.3059721 C121.95478832 11.05384266 121.95478832 11.05384266 121.94928646 12.83702374 C121.94943249 14.05636608 121.94957851 15.27570843 121.94972897 16.53200054 C121.94915 19.88516408 121.94412075 23.23826671 121.93715501 26.59141946 C121.9309209 30.09214459 121.93031763 33.59287045 121.9291296 37.09360027 C121.92601645 43.72698553 121.91780329 50.36035438 121.90778011 56.99373239 C121.89661846 64.54379104 121.89110839 72.09385046 121.88608468 79.6439153 C121.87562066 95.17891603 121.85802154 110.71390039 121.83576107 126.24888897 C105.55505804 126.27221799 89.2743604 126.28986816 72.99364471 126.30070114 C65.43474488 126.30586409 57.87585542 126.31290677 50.31696224 126.32432842 C43.73096441 126.33427529 37.14497409 126.3407424 30.55896896 126.34297746 C27.06963036 126.34428457 23.58031323 126.34737039 20.09098148 126.35461903 C16.20194875 126.36263295 12.31293729 126.36288011 8.42389584 126.36241436 C7.2586488 126.36600964 6.09340176 126.36960491 4.8928442 126.37330914 C3.31312832 126.37124714 3.31312832 126.37124714 1.70149899 126.36914349 C0.3201922 126.37052618 0.3201922 126.37052618 -1.08901978 126.3719368 C-3.16423893 126.24888897 -3.16423893 126.24888897 -4.16423893 125.24888897 C-4.26455038 123.65930987 -4.29499751 122.06527536 -4.2979517 120.47253704 C-4.30221668 119.43911175 -4.30648167 118.40568645 -4.31087589 117.34094524 C-4.31042271 116.19754177 -4.30996952 115.0541383 -4.3095026 113.87608624 C-4.31286121 112.67946362 -4.31621983 111.482841 -4.31968021 110.24995708 C-4.32757592 106.95864536 -4.33085915 103.66739669 -4.331496 100.3760798 C-4.33244351 97.63241294 -4.33611998 94.88875218 -4.3396681 92.14508766 C-4.34782018 85.67406974 -4.35025165 79.20306573 -4.34954166 72.73204327 C-4.34894069 66.0479344 -4.35949456 59.36390619 -4.37528533 52.67981774 C-4.38834354 46.94902431 -4.39372629 41.21825731 -4.39308625 35.48744911 C-4.39283075 32.06123139 -4.39571037 28.63508529 -4.40626431 25.20888233 C-4.41770719 21.38958464 -4.41320902 17.57039832 -4.40715885 13.75108624 C-4.41277836 12.60970699 -4.41839787 11.46832775 -4.42418766 10.29236126 C-4.41999317 9.25611614 -4.41579868 8.21987103 -4.41147709 7.15222454 C-4.41202186 6.24832265 -4.41256662 5.34442076 -4.4131279 4.4131279 C-4.0594974 1.33809856 -3.07502934 0.35363049 0 0 Z M-2.16423893 2.24888897 C-2.18486393 22.35826397 -2.20548893 42.46763897 -2.22673893 63.18638897 C-2.23584293 69.54654278 -2.24494694 75.90669659 -2.25432682 82.45958233 C-2.25767032 88.13842269 -2.25767032 88.13842269 -2.25968266 93.8172636 C-2.26122278 96.35555477 -2.2647491 98.89384519 -2.26981449 101.43213177 C-2.27708738 105.26681581 -2.2781465 109.10145497 -2.27776432 112.93614483 C-2.28136243 114.07548694 -2.28496054 115.21482904 -2.28866768 116.38869667 C-2.28729018 117.41445085 -2.28591269 118.44020502 -2.28449345 119.49704266 C-2.28541524 120.39579082 -2.28633703 121.29453897 -2.28728676 122.22052193 C-2.38945144 124.24467393 -2.38945144 124.24467393 -1.16423893 125.24888897 C0.41730955 125.34483122 2.00315232 125.37076857 3.58760738 125.36914349 C4.61336156 125.37052098 5.63911573 125.37189848 6.69595337 125.37331772 C7.83529548 125.36971961 8.97463758 125.3661215 10.14850521 125.36241436 C11.96261599 125.36259516 11.96261599 125.36259516 13.81337547 125.36277962 C17.74924112 125.36203001 21.68506009 125.35439959 25.62091732 125.34654522 C28.04242588 125.34507595 30.46393475 125.34405515 32.88544369 125.34349346 C41.88972097 125.33823885 50.89399147 125.32427779 59.89826107 125.31138897 C80.00763607 125.29076397 100.11701107 125.27013897 120.83576107 125.24888897 C120.83576107 84.65888897 120.83576107 44.06888897 120.83576107 2.24888897 C80.24576107 2.24888897 39.65576107 2.24888897 -2.16423893 2.24888897 Z " fill="#8DA9EA" transform="translate(246.16423892974854,23.751111030578613)"/>
<path d="M0 0 C6.46102781 0.46989293 11.24244003 2.09026539 17 5 C18.01449219 5.49628906 19.02898437 5.99257812 20.07421875 6.50390625 C43.35951477 18.38078505 59.89864426 38.54054115 68.15429688 63.20214844 C70.85770976 72.14588738 71.35782019 81.01594961 71.3125 90.3125 C71.30512817 92.10034912 71.30512817 92.10034912 71.29760742 93.92431641 C71.13557147 106.08116745 70.08894042 123.91105958 61 133 C61.875 125.125 61.875 125.125 63 124 C63.50288264 121.65473823 63.89903153 119.29746171 64.3046875 116.93359375 C65 114 65 114 66.52734375 110.56640625 C68.88967195 104.46372507 68.57263551 97.95866629 68.6875 91.5 C68.72166016 90.200625 68.75582031 88.90125 68.79101562 87.5625 C68.87304465 84.37508629 68.94234455 81.18793217 69 78 C68.34 78 67.68 78 67 78 C67 74.37 67 70.74 67 67 C65.515 66.505 65.515 66.505 64 66 C63.00994053 63.67615122 62.19110825 61.4612089 61.4375 59.0625 C59.9773339 54.11759297 59.9773339 54.11759297 57 50 C56.875 47.375 56.875 47.375 57 45 C56.01 44.67 55.02 44.34 54 44 C53.67 42.35 53.34 40.7 53 39 C52.34 39 51.68 39 51 39 C49.86077368 37.43503189 48.78787204 35.8214472 47.75 34.1875 C44.87450118 29.90433021 42.7276358 28.13869239 38 26 C37.125 23.3125 37.125 23.3125 37 21 C36.360625 20.87625 35.72125 20.7525 35.0625 20.625 C34.0415625 20.315625 34.0415625 20.315625 33 20 C32.505 19.01 32.505 19.01 32 18 C30.02477154 16.95191959 28.02518491 15.9479589 26 15 C26 14.34 26 13.68 26 13 C25.278125 12.855625 24.55625 12.71125 23.8125 12.5625 C22.884375 12.376875 21.95625 12.19125 21 12 C20.13375 11.87625 19.2675 11.7525 18.375 11.625 C16 11 16 11 14.60546875 9.5546875 C12.3145968 7.33627622 9.83349099 6.78031003 6.83984375 5.84375 C5 5 5 5 3 2 C2.01 1.34 1.02 0.68 0 0 Z " fill="#60B0EB" transform="translate(314,196)"/>
<path d="M0 0 C0.33 0 0.66 0 1 0 C2.42723269 16.69352526 2 33.17599677 2 50 C39.62 50 77.24 50 116 50 C118.40016539 45.19966923 117.97805702 40.45851398 117.5625 35.25 C116.94647692 26.48974689 116.90112554 17.77785472 117 9 C117.66 9 118.32 9 119 9 C119.33 6.03 119.66 3.06 120 0 C120.33 0 120.66 0 121 0 C121.02529271 7.08413941 121.04284261 14.16826723 121.05493164 21.25244141 C121.05996974 23.66390417 121.06680034 26.07536386 121.07543945 28.48681641 C121.08752787 31.94694779 121.09323344 35.4070389 121.09765625 38.8671875 C121.10281754 39.95055389 121.10797882 41.03392029 121.11329651 42.15011597 C121.11337204 43.1510025 121.11344757 44.15188904 121.11352539 45.18310547 C121.115746 46.06690887 121.11796661 46.95071228 121.12025452 47.86129761 C121 50 121 50 120 52 C104.50160144 52.02332946 89.00320418 52.04097941 73.50479221 52.05181217 C66.30909705 52.05697503 59.11341278 52.06401753 51.91772461 52.07543945 C45.64815306 52.0853866 39.37858939 52.0918535 33.10901016 52.09408849 C29.78734379 52.09539555 26.46570534 52.09899997 23.14404488 52.10573006 C19.44180053 52.11293628 15.73960369 52.11399112 12.03735352 52.11352539 C10.3736396 52.1189183 10.3736396 52.1189183 8.67631531 52.12442017 C7.67365631 52.1230455 6.67099731 52.12167084 5.63795471 52.12025452 C4.76132958 52.12117631 3.88470446 52.1220981 2.98151493 52.12304783 C1 52 1 52 0 51 C-0.09333705 49.40389018 -0.11745372 47.80366572 -0.11352539 46.20483398 C-0.11344986 45.18385117 -0.11337433 44.16286835 -0.11329651 43.11094666 C-0.10813522 42.0005452 -0.10297394 40.89014374 -0.09765625 39.74609375 C-0.0962413 38.61551041 -0.09482635 37.48492706 -0.09336853 36.32008362 C-0.08775019 32.69252935 -0.07519458 29.06503576 -0.0625 25.4375 C-0.05748736 22.98502693 -0.05292405 20.5325529 -0.04882812 18.08007812 C-0.0377748 12.05336455 -0.02101884 6.02668661 0 0 Z " fill="#3881EE" transform="translate(245,96)"/>
<path d="M0 0 C13.46576564 -0.04648329 26.93151198 -0.08195019 40.39734173 -0.10362434 C46.65107255 -0.11403048 52.90474819 -0.12813148 59.15844727 -0.15087891 C65.20146535 -0.1727207 71.24443059 -0.18459243 77.28748512 -0.18975449 C79.58497766 -0.19342997 81.88246753 -0.2006069 84.17993736 -0.21146011 C114.4768008 -0.34879946 114.4768008 -0.34879946 121 4 C116.61414671 4.70173653 112.44209357 5.10834375 108 5 C107.505 4.01 107.505 4.01 107 3 C104.93757383 2.97282308 102.87504297 2.9535242 100.8125 2.9375 C99.66394531 2.92589844 98.51539063 2.91429687 97.33203125 2.90234375 C94.40699414 2.98807168 91.83683709 3.32150977 89 4 C89 3.34 89 2.68 89 2 C88.07815918 2.01474869 87.15631836 2.02949738 86.20654297 2.04469299 C77.49715403 2.18303996 68.78770275 2.31599205 60.07814026 2.4429636 C55.60103267 2.50842089 51.12397591 2.57592584 46.64697266 2.64819336 C42.32226757 2.71792576 37.99751187 2.78217098 33.67266846 2.84269524 C32.02692737 2.86667508 30.3812133 2.89259486 28.73553467 2.92053413 C26.42138895 2.95948288 24.10724115 2.99138199 21.79296875 3.02172852 C19.82106567 3.05170677 19.82106567 3.05170677 17.80932617 3.08229065 C14.9544867 3.02061922 12.4350573 2.80073715 9.63793945 2.37364197 C8.43741943 2.25034012 7.23689941 2.12703827 6 2 C1.36520928 6.63479072 1.7716327 15.22070899 1.75115967 21.46340942 C1.75835022 22.34382904 1.76554077 23.22424866 1.77294922 24.13134766 C1.77265717 25.08865784 1.77236511 26.04596802 1.77206421 27.0322876 C1.77344451 30.15964192 1.78894388 33.2867504 1.8046875 36.4140625 C1.80842226 38.59695302 1.81126704 40.77984523 1.81326294 42.96273804 C1.82086294 48.68044748 1.84047995 54.39805371 1.8626709 60.11572266 C1.88320791 65.96124882 1.8922814 71.80679183 1.90234375 77.65234375 C1.9237295 89.1016076 1.95782119 100.55079518 2 112 C0.27758593 109.00328697 -0.24851966 106.86345248 -0.24050903 103.41888428 C-0.24325836 102.50465698 -0.24600769 101.59042969 -0.24884033 100.64849854 C-0.24164978 99.65299988 -0.23445923 98.65750122 -0.22705078 97.63183594 C-0.22734283 96.57786621 -0.22763489 95.52389648 -0.22793579 94.43798828 C-0.22654217 90.95336685 -0.21097922 87.46895909 -0.1953125 83.984375 C-0.19158249 81.56870643 -0.18873546 79.15303635 -0.18673706 76.73736572 C-0.17909968 70.37841619 -0.15945018 64.01955798 -0.1373291 57.66064453 C-0.116873 51.17221309 -0.10773584 44.68376689 -0.09765625 38.1953125 C-0.07620448 25.4635027 -0.04245146 12.73175621 0 0 Z " fill="#339DEB" transform="translate(199,195)"/>
<path d="M0 0 C7.21045072 6.39872877 14.3863837 13.49955721 18.66210938 22.26586914 C18.66210938 22.92586914 18.66210938 23.58586914 18.66210938 24.26586914 C15.88800723 23.88323436 14.89323265 23.552462 13.09960938 21.32836914 C12.62523437 20.64774414 12.15085937 19.96711914 11.66210938 19.26586914 C10.17710937 18.27586914 10.17710937 18.27586914 8.66210938 17.26586914 C8.47648437 15.78086914 8.47648437 15.78086914 8.28710938 14.26586914 C8.08085937 13.27586914 7.87460938 12.28586914 7.66210938 11.26586914 C5.26681268 9.94105368 5.26681268 9.94105368 2.66210938 9.26586914 C0.66210938 7.26586914 0.66210938 7.26586914 0.28710938 5.26586914 C-0.15985374 3.113886 -0.15985374 3.113886 -2.15039062 2.01586914 C-4.58310459 1.04965292 -4.58310459 1.04965292 -8.33789062 1.26586914 C-8.83289063 0.27586914 -8.83289063 0.27586914 -9.33789062 -0.73413086 C-10.82289063 -1.22913086 -10.82289063 -1.22913086 -12.33789062 -1.73413086 C-13.56679866 -3.25409606 -14.79435153 -4.77530838 -16.00195312 -6.31225586 C-17.82128107 -8.2486166 -19.87350829 -8.84421502 -22.33789062 -9.73413086 C-22.83289063 -11.21913086 -22.83289063 -11.21913086 -23.33789062 -12.73413086 C-24.10101563 -12.87850586 -24.86414063 -13.02288086 -25.65039062 -13.17163086 C-28.33789062 -13.73413086 -28.33789062 -13.73413086 -31.33789062 -14.73413086 C-31.33789062 -15.39413086 -31.33789062 -16.05413086 -31.33789062 -16.73413086 C-32.12292969 -16.7947168 -32.90796875 -16.85530273 -33.71679688 -16.91772461 C-35.29267578 -17.0434082 -35.29267578 -17.0434082 -36.90039062 -17.17163086 C-37.93292969 -17.2528418 -38.96546875 -17.33405273 -40.02929688 -17.41772461 C-43.33789062 -17.73413086 -43.33789062 -17.73413086 -46.43554688 -18.26147461 C-52.03085321 -18.93918439 -57.5823783 -18.87841344 -63.21289062 -18.85913086 C-64.3653125 -18.86299805 -65.51773438 -18.86686523 -66.70507812 -18.87084961 C-67.79820313 -18.86956055 -68.89132813 -18.86827148 -70.01757812 -18.86694336 C-71.51393799 -18.86525146 -71.51393799 -18.86525146 -73.04052734 -18.86352539 C-75.30204395 -18.99205236 -75.30204395 -18.99205236 -76.33789062 -17.73413086 C-78.3732863 -17.38309885 -80.41678551 -17.07861118 -82.46289062 -16.79663086 C-90.92293278 -15.84217757 -90.92293278 -15.84217757 -98.33789062 -12.10913086 C-101.283033 -10.08434547 -103.86250153 -10.53362764 -107.33789062 -10.73413086 C-103.17539148 -14.54975508 -99.11198124 -16.17723145 -93.83789062 -17.85913086 C-92.63205322 -18.24705811 -92.63205322 -18.24705811 -91.40185547 -18.64282227 C-59.6716782 -28.5399021 -25.23420864 -21.73650842 0 0 Z " fill="#6C81E1" transform="translate(167.337890625,29.734130859375)"/>
<path d="M0 0 C1.98 0.66 3.96 1.32 6 2 C6 3.32 6 4.64 6 6 C6.99 5.67 7.98 5.34 9 5 C11.2477975 7.05233685 12.0022242 8.00667261 13 11 C14.98 11 16.96 11 19 11 C19.33 12.98 19.66 14.96 20 17 C20.99 17 21.98 17 23 17 C23 17.99 23 18.98 23 20 C26.30577678 21.80533926 29.64256403 22.8732209 33.25 23.9375 C37.11489121 25.09262479 40.88674954 26.29774424 44.625 27.8125 C47.9314666 29.3634975 47.9314666 29.3634975 51 28 C53.59565478 29.02253067 55.01046676 30.01046676 57 32 C59.69565533 32.37537296 59.69565533 32.37537296 62.89892578 32.41625977 C64.14600311 32.45532944 65.39308044 32.49439911 66.677948 32.53465271 C68.05872167 32.56670142 69.43951057 32.59809932 70.8203125 32.62890625 C72.25766425 32.66728261 73.6950116 32.7058245 75.13235474 32.74452209 C93.65105905 33.20783859 112.1776308 33.03339163 130.69970703 32.90405273 C134.60097724 32.87737525 138.50219371 32.86028957 142.40353775 32.84918404 C143.87001761 32.84299636 145.33648676 32.8330189 146.80291367 32.81910515 C148.82020422 32.80001647 150.83760644 32.79406961 152.85498047 32.78881836 C153.99756317 32.78136093 155.14014587 32.7739035 156.31735229 32.76622009 C159 33 159 33 161 35 C147.34262701 35.11639852 133.68537411 35.20497009 120.0276041 35.25906086 C113.68415737 35.28503575 107.34105269 35.3202109 100.99780273 35.37719727 C94.86396409 35.43195077 88.73045224 35.46151132 82.59638786 35.47438622 C80.26866457 35.48354881 77.94095698 35.50143876 75.61337471 35.52865028 C51.61388571 35.79779428 31.52222648 31.2995593 13 15 C12.26910156 14.38898438 11.53820312 13.77796875 10.78515625 13.1484375 C6.73457697 9.72392541 3.1712317 6.2613426 0 2 C0 1.34 0 0.68 0 0 Z " fill="#3591F0" transform="translate(31,158)"/>
<path d="M0 0 C8.64217604 7.06129018 11.81601466 23.64334106 13 34 C14.7794233 55.72384234 14.1125733 77.73007729 14.0625 99.5 C14.041875 112.205 14.02125 124.91 14 138 C47.66 138.33 81.32 138.66 116 139 C116 139.33 116 139.66 116 140 C102.58774207 140.0231207 89.17548883 140.04091369 75.76321507 140.05181217 C69.53606528 140.0570416 63.30892908 140.06414033 57.08178711 140.07543945 C51.07773135 140.08626621 45.07368871 140.09227638 39.06962395 140.09487724 C36.7733839 140.09673188 34.47714461 140.10035321 32.18091011 140.10573006 C28.97679186 140.11293768 25.7727285 140.11399106 22.56860352 140.11352539 C21.60907272 140.11712067 20.64954193 140.12071594 19.66093445 140.12442017 C18.79290192 140.1230455 17.92486938 140.12167084 17.03053284 140.12025452 C16.27189721 140.12117631 15.51326159 140.1220981 14.731637 140.12304783 C13 140 13 140 12 139 C11.90472963 137.65927183 11.8781123 136.31357497 11.87974548 134.96946716 C11.87837082 134.10143463 11.87699615 133.2334021 11.87557983 132.33906555 C11.87917511 131.37953476 11.88277039 130.42000397 11.88647461 129.43139648 C11.88632858 128.42663269 11.88618256 127.4218689 11.8860321 126.38665771 C11.8867317 123.04811483 11.89452626 119.70962695 11.90234375 116.37109375 C11.90420776 114.06323782 11.90563174 111.75538149 11.90663147 109.44752502 C11.91045796 103.35982174 11.92028935 97.27214214 11.93133545 91.18444824 C11.94154677 84.97778646 11.94612849 78.77112087 11.95117188 72.56445312 C11.9619115 60.37629165 11.97898948 48.18814779 12 36 C11.34 36 10.68 36 10 36 C9.86722656 35.36191406 9.73445312 34.72382812 9.59765625 34.06640625 C9.33275391 32.82697266 9.33275391 32.82697266 9.0625 31.5625 C8.88847656 30.73878906 8.71445313 29.91507813 8.53515625 29.06640625 C8.19247006 27.02338796 8.19247006 27.02338796 7 26 C6.85884839 23.32941149 6.95752893 20.67567762 7 18 C6.34 18 5.68 18 5 18 C2.77908549 13.70623194 1.76234292 9.76464323 1 5 C0.67364302 3.33195323 0.34274406 1.66475686 0 0 Z " fill="#8CBBED" transform="translate(186,54)"/>
<path d="M0 0 C0 0.66 0 1.32 0 2 C-1.4609375 3.2890625 -1.4609375 3.2890625 -3.375 4.625 C-4.31472656 5.29402344 -4.31472656 5.29402344 -5.2734375 5.9765625 C-7 7 -7 7 -9 7 C-9.0928125 8.36125 -9.0928125 8.36125 -9.1875 9.75 C-10.20593138 13.82372552 -11.61700087 14.63976805 -15 17 C-16.0828125 18.11375 -16.0828125 18.11375 -17.1875 19.25 C-19 21 -19 21 -21 21 C-21.2475 21.5775 -21.495 22.155 -21.75 22.75 C-23 25 -23 25 -24.91015625 26.69921875 C-27.50852307 29.55985063 -28.60116032 32.42755771 -29.6875 36.0625 C-29.90172607 36.7733374 -30.11595215 37.4841748 -30.33666992 38.21655273 C-33.33366106 49.47900397 -32.93474228 61.42379157 -33 73 C-32.34 73 -31.68 73 -31 73 C-31 74.98 -31 76.96 -31 79 C-30.34 79 -29.68 79 -29 79 C-29 79.66 -29 80.32 -29 81 C-28.34 81 -27.68 81 -27 81 C-26.13444052 83.09950586 -25.28288723 85.2047907 -24.4375 87.3125 C-23.96183594 88.48425781 -23.48617187 89.65601563 -22.99609375 90.86328125 C-22 94 -22 94 -23 97 C-33.62472786 81.30166614 -38.11360066 66.43919235 -35.5 47.34765625 C-32.24043708 30.58683553 -24.41636967 15.03902698 -10.1875 5.01953125 C-2.49288922 0 -2.49288922 0 0 0 Z " fill="#6CC5E8" transform="translate(64,241)"/>
<path d="M0 0 C9.84972716 9.09847679 13.10734766 22.41225269 14.31640625 35.3984375 C15.00322024 54.76216092 8.09830621 71.84726843 -5 86 C-10.11956522 91 -10.11956522 91 -13 91 C-12.1875 88.5625 -12.1875 88.5625 -11 86 C-9.515 85.505 -9.515 85.505 -8 85 C-6.18653734 83.1355719 -6.18653734 83.1355719 -4.4375 80.9375 C-3.33498812 79.58840481 -2.19689312 78.26611103 -1 77 C-0.34 77 0.32 77 1 77 C1.29003906 75.78763672 1.29003906 75.78763672 1.5859375 74.55078125 C1.84632813 73.48214844 2.10671875 72.41351563 2.375 71.3125 C2.75785156 69.72888672 2.75785156 69.72888672 3.1484375 68.11328125 C3.91905489 65.29593234 4.85498543 62.68331675 6 60 C6.66 60 7.32 60 8 60 C7.95875 58.7625 7.9175 57.525 7.875 56.25 C7.85737409 52.47805622 8.31676152 49.06865771 9.0625 45.375 C10.76089113 35.91253514 10.63793868 26.53007817 6 18 C5.40107208 16.38807054 4.83388963 14.76365314 4.3125 13.125 C4.06113281 12.34382813 3.80976563 11.56265625 3.55078125 10.7578125 C3.36902344 10.17773438 3.18726563 9.59765625 3 9 C2.01 9 1.02 9 0 9 C-1.4606285 6.35261084 -2 5.10551666 -2 2 C-1.34 2 -0.68 2 0 2 C0 1.34 0 0.68 0 0 Z " fill="#55BDEB" transform="translate(145,259)"/>
<path d="M0 0 C0.87840996 3.09720845 0.99435406 4.90645403 0 8 C-0.66 8 -1.32 8 -2 8 C-2.33 9.32 -2.66 10.64 -3 12 C-3.33 12 -3.66 12 -4 12 C-4.268125 13.175625 -4.53625 14.35125 -4.8125 15.5625 C-5.45188834 18.36597195 -6.30507651 20.6745051 -7.5 23.31640625 C-11.68957412 33.60486562 -11.22346337 45.97013778 -11.375 56.9375 C-11.40102295 57.97890137 -11.4270459 59.02030273 -11.45385742 60.09326172 C-11.47050966 67.28817513 -9.93483456 72.49349957 -7 79 C-6.413998 80.94552663 -5.86090901 82.90209233 -5.375 84.875 C-4.73292622 87.46595656 -4.15490494 89.70467764 -2.9140625 92.0703125 C-2 94 -2 94 -2 98 C-1.34 98 -0.68 98 0 98 C0.28875 98.804375 0.5775 99.60875 0.875 100.4375 C1.73262568 103.1326468 1.73262568 103.1326468 4 104 C4.625 106.5625 4.625 106.5625 5 109 C0.70410274 105.12081235 -1.9140277 101.12340617 -4.5625 96 C-5.14946655 94.87223145 -5.14946655 94.87223145 -5.74829102 93.72167969 C-16.90717777 71.70770833 -18.24804077 45.15463461 -10.67578125 21.73046875 C-7.98916821 13.97813352 -4.61674543 6.81051809 0 0 Z " fill="#77A2E6" transform="translate(26,49)"/>
<path d="M0 0 C-6.93530275 5.32422578 -13.80514152 8.98259966 -22 12 C-22.78375 12.29777344 -23.5675 12.59554688 -24.375 12.90234375 C-47.20403536 21.0963368 -74.10403042 18.80685894 -96.0078125 8.953125 C-96.66523438 8.63859375 -97.32265625 8.3240625 -98 8 C-94.87819599 7.03338637 -92.47916205 7.01011091 -89.25 7.4375 C-88.45078125 7.53933594 -87.6515625 7.64117187 -86.828125 7.74609375 C-86.22484375 7.82988281 -85.6215625 7.91367187 -85 8 C-85 8.66 -85 9.32 -85 10 C-84.34 10 -83.68 10 -83 10 C-83 10.66 -83 11.32 -83 12 C-81.78763672 11.98259766 -81.78763672 11.98259766 -80.55078125 11.96484375 C-79.48214844 11.95582031 -78.41351563 11.94679688 -77.3125 11.9375 C-76.25675781 11.92589844 -75.20101563 11.91429687 -74.11328125 11.90234375 C-71 12 -71 12 -68.71484375 12.48828125 C-56.62665514 14.76677436 -43.5759193 13.1735325 -31.64453125 10.734375 C-27.42979741 9.88510387 -23.27779445 9.3888904 -19 9 C-19 8.34 -19 7.68 -19 7 C-15.86501708 5.14223235 -13.62528568 4.79859524 -10 5 C-10 4.34 -10 3.68 -10 3 C-3.375 -1.125 -3.375 -1.125 0 0 Z " fill="#31C0E9" transform="translate(346,363)"/>
<path d="M0 0 C32.34 0 64.68 0 98 0 C98.04898438 7.12851563 98.09796875 14.25703125 98.1484375 21.6015625 C98.18385848 26.14063846 98.21983828 30.67969643 98.2578125 35.21875 C98.31792099 42.40980334 98.37605578 49.60083175 98.421875 56.79199219 C98.45898086 62.59519378 98.50540667 68.39825533 98.55806351 74.20133591 C98.57647393 76.4058624 98.59163009 78.61041875 98.60334396 80.814991 C98.66692931 92.37711722 98.84575644 103.60235881 101 115 C101.66 115 102.32 115 103 115 C103.69761537 117.60183588 104.38337774 120.20583602 105.0625 122.8125 C105.26166016 123.55048828 105.46082031 124.28847656 105.66601562 125.04882812 C107.11328125 130.66015625 107.11328125 130.66015625 106 134 C99.94131794 120.49368901 96.82916956 107.64311751 96.88647461 92.84204102 C96.88632858 91.84615463 96.88618256 90.85026825 96.8860321 89.82420349 C96.88672567 86.55074849 96.89449195 83.27735124 96.90234375 80.00390625 C96.90420991 77.72704601 96.90563288 75.45018537 96.90663147 73.17332458 C96.91044108 67.19421267 96.92025805 61.21512523 96.93133545 55.23602295 C96.94158306 49.12935721 96.94613626 43.0226875 96.95117188 36.91601562 C96.96188174 24.94399969 96.97893943 12.97200189 97 1 C96.0996926 1.04639067 96.0996926 1.04639067 95.18119717 1.09371853 C81.95470291 1.76055748 68.80636205 2.11881847 55.56640625 1.87890625 C53.94018914 1.85447234 52.31396294 1.83063671 50.68772888 1.80735779 C46.49741905 1.74583094 42.30727946 1.67642515 38.11712646 1.60510254 C33.80537378 1.53319707 29.49350452 1.46912312 25.18164062 1.40429688 C16.78763101 1.27699038 8.39378535 1.14132056 0 1 C0 0.67 0 0.34 0 0 Z " fill="#96CDF4" transform="translate(100,194)"/>
<path d="M0 0 C4.10839064 1.45002023 7.50344613 3.3979134 11 6 C11 6.66 11 7.32 11 8 C11.66 8 12.32 8 13 8 C13 8.66 13 9.32 13 10 C13.66 10 14.32 10 15 10 C15.185625 10.639375 15.37125 11.27875 15.5625 11.9375 C16.94246056 14.42126213 16.94246056 14.42126213 20.625 14.75 C21.73875 14.8325 22.8525 14.915 24 15 C24 15.66 24 16.32 24 17 C26.31 17.33 28.62 17.66 31 18 C31.33 18.99 31.66 19.98 32 21 C33.08667969 20.98259766 33.08667969 20.98259766 34.1953125 20.96484375 C35.64550781 20.95130859 35.64550781 20.95130859 37.125 20.9375 C38.07632813 20.92589844 39.02765625 20.91429687 40.0078125 20.90234375 C43.09052597 21.0029545 45.96131455 21.48896623 49 22 C57.04198549 22.44390934 65.22202123 22.29514128 73 20 C73.66 19.34 74.32 18.68 75 18 C76.72400297 17.25184777 78.44974828 16.50685881 80.19140625 15.80078125 C82.21863357 14.95704041 82.21863357 14.95704041 84.75 13.25 C85.4925 12.8375 86.235 12.425 87 12 C87.99 12.33 88.98 12.66 90 13 C75.33618738 24.28880813 57.96151933 26.52194028 40 25 C25.15364687 22.49490816 12.21574043 14.91841041 2 4 C0.69140625 1.6953125 0.69140625 1.6953125 0 0 Z " fill="#33BEEC" transform="translate(42,338)"/>
<path d="M0 0 C3.48675573 3.19735967 6.7833687 6.5321784 10 10 C9.67 10.66 9.34 11.32 9 12 C8.5153125 11.45730469 8.030625 10.91460937 7.53125 10.35546875 C2.95295183 5.4690159 -0.55046902 2.84272314 -7 1 C-7 0.34 -7 -0.32 -7 -1 C-7.763125 -0.938125 -8.52625 -0.87625 -9.3125 -0.8125 C-12 -1 -12 -1 -13.8125 -2.3125 C-15 -4 -15 -4 -15 -7 C-17.64 -7.33 -20.28 -7.66 -23 -8 C-23 -8.66 -23 -9.32 -23 -10 C-42.82958791 -10.81789275 -42.82958791 -10.81789275 -62.08203125 -6.875 C-65.19669264 -5.94101854 -67.7669446 -5.8453546 -71 -6 C-69.29203152 -9.41593697 -65.63267837 -9.84565614 -62.16796875 -11.046875 C-40.71532104 -17.50118578 -17.89410732 -13.49018275 0 0 Z " fill="#67B6E5" transform="translate(135,247)"/>
<path d="M0 0 C6.46102781 0.46989293 11.24244003 2.09026539 17 5 C18.01449219 5.49628906 19.02898437 5.99257812 20.07421875 6.50390625 C29.53659113 11.33027607 39.99380785 17.21516989 45 27 C45.35858516 28.32676508 45.6970172 29.65944403 46 31 C38.31509847 26.88621444 38.31509847 26.88621444 37 23.1875 C37 22.465625 37 21.74375 37 21 C36.360625 20.87625 35.72125 20.7525 35.0625 20.625 C34.0415625 20.315625 34.0415625 20.315625 33 20 C32.505 19.01 32.505 19.01 32 18 C30.02477154 16.95191959 28.02518491 15.9479589 26 15 C26 14.34 26 13.68 26 13 C25.278125 12.855625 24.55625 12.71125 23.8125 12.5625 C22.884375 12.376875 21.95625 12.19125 21 12 C20.13375 11.87625 19.2675 11.7525 18.375 11.625 C16 11 16 11 14.60546875 9.5546875 C12.3145968 7.33627622 9.83349099 6.78031003 6.83984375 5.84375 C5 5 5 5 3 2 C2.01 1.34 1.02 0.68 0 0 Z " fill="#469DE6" transform="translate(314,196)"/>
<path d="M0 0 C5.12129505 7.68194257 4.35594923 18.39974067 4.3125 27.3125 C4.30758545 28.50439941 4.3026709 29.69629883 4.29760742 30.92431641 C4.13557147 43.08116745 3.08894042 60.91105958 -6 70 C-5.125 62.125 -5.125 62.125 -4 61 C-3.49711736 58.65473823 -3.10096847 56.29746171 -2.6953125 53.93359375 C-2 51 -2 51 -0.47265625 47.56640625 C1.88967195 41.46372507 1.57263551 34.95866629 1.6875 28.5 C1.72166016 27.200625 1.75582031 25.90125 1.79101562 24.5625 C1.87304465 21.37508629 1.94234455 18.18793217 2 15 C1.34 15 0.68 15 0 15 C0 10.05 0 5.1 0 0 Z " fill="#6BBEE7" transform="translate(381,259)"/>
<path d="M0 0 C1.98 0.66 3.96 1.32 6 2 C6 3.32 6 4.64 6 6 C6.99 5.67 7.98 5.34 9 5 C11.2477975 7.05233685 12.0022242 8.00667261 13 11 C14.98 11 16.96 11 19 11 C19.33 12.98 19.66 14.96 20 17 C20.99 17 21.98 17 23 17 C23 17.99 23 18.98 23 20 C25.53125276 21.41750155 27.72490774 22.1907652 30.5625 22.9375 C33.82347497 23.94543772 34.91235976 24.47285655 37 27 C37.66 27.33 38.32 27.66 39 28 C39 28.66 39 29.32 39 30 C28.22687927 26.99765488 20.0574722 21.098066 11.625 13.9375 C11.04210205 13.4432251 10.4592041 12.9489502 9.85864258 12.43969727 C6.16545876 9.22538759 2.95999239 5.90785512 0 2 C0 1.34 0 0.68 0 0 Z " fill="#5597E7" transform="translate(31,158)"/>
<path d="M0 0 C0 0.66 0 1.32 0 2 C-0.66 2 -1.32 2 -2 2 C-2.33 3.32 -2.66 4.64 -3 6 C-3.99 6 -4.98 6 -6 6 C-6.33 6.99 -6.66 7.98 -7 9 C-7.62132813 9.14824219 -8.24265625 9.29648437 -8.8828125 9.44921875 C-11.71779607 10.18673292 -12.28942645 11.39830751 -13.875 13.8125 C-16.48783478 17.51677209 -19.08192639 19.64915583 -23 22 C-23.86625 22.86625 -23.86625 22.86625 -24.75 23.75 C-25.1625 24.1625 -25.575 24.575 -26 25 C-26.66 25 -27.32 25 -28 25 C-28.33 26.32 -28.66 27.64 -29 29 C-30.32 29.33 -31.64 29.66 -33 30 C-31.54574962 25.39912598 -28.93030136 22.27324826 -25.6875 18.8125 C-25.16349609 18.24877686 -24.63949219 17.68505371 -24.09960938 17.10424805 C-7.77535174 0 -7.77535174 0 0 0 Z " fill="#6F8ADD" transform="translate(60,19)"/>
<path d="M0 0 C11.2492379 -0.04653525 22.49845255 -0.08197622 33.74776745 -0.10362434 C38.97242341 -0.11401931 44.19701305 -0.12809938 49.42163086 -0.15087891 C54.4726202 -0.17276121 59.52354612 -0.18460079 64.57457924 -0.18975449 C66.49248565 -0.19342281 68.41038896 -0.20058534 70.32826805 -0.21146011 C97.46141144 -0.35905904 97.46141144 -0.35905904 104 4 C99.61414671 4.70173653 95.44209357 5.10834375 91 5 C90.505 4.01 90.505 4.01 90 3 C80.59990762 1.54411914 71.01639258 1.77649749 61.5234375 1.68359375 C59.74410562 1.6629868 57.96477822 1.64198945 56.18545532 1.62062073 C51.53313865 1.5657859 46.88078067 1.5162087 42.22839355 1.46777344 C37.46863183 1.41727415 32.70892908 1.36173743 27.94921875 1.30664062 C18.63286304 1.19953207 9.31645583 1.09798482 0 1 C0 0.67 0 0.34 0 0 Z " fill="#3B94E8" transform="translate(216,195)"/>
<path d="M0 0 C0 0.66 0 1.32 0 2 C-9.07216495 2.16136262 -9.07216495 2.16136262 -12.875 1.5 C-17.89108695 0.69742609 -22.93075287 0.92617601 -28 1 C-28 1.66 -28 2.32 -28 3 C-29.60875 2.938125 -29.60875 2.938125 -31.25 2.875 C-35.90674769 3.03022492 -37.73235219 3.69146032 -40.9375 7 C-44.04113847 10.00958882 -46.88639062 10.84409469 -51.125 11.4375 C-54.16766193 12.03280342 -55.12737744 12.6072045 -57 15 C-57 11 -57 11 -55.5390625 9.515625 C-54.90742187 9.09796875 -54.27578125 8.6803125 -53.625 8.25 C-52.99851562 7.82203125 -52.37203125 7.3940625 -51.7265625 6.953125 C-50 6 -50 6 -48 6 C-48 5.34 -48 4.68 -48 4 C-31.63109445 -0.61995833 -16.87113699 -2.32573866 0 0 Z " fill="#2AA1F2" transform="translate(112,237)"/>
<path d="M0 0 C0 0.66 0 1.32 0 2 C-1.4609375 3.2890625 -1.4609375 3.2890625 -3.375 4.625 C-4.31472656 5.29402344 -4.31472656 5.29402344 -5.2734375 5.9765625 C-7 7 -7 7 -9 7 C-9.061875 7.9075 -9.12375 8.815 -9.1875 9.75 C-10.20593138 13.82372552 -11.61700087 14.63976805 -15 17 C-16.0828125 18.11375 -16.0828125 18.11375 -17.1875 19.25 C-19 21 -19 21 -21 21 C-21.28875 21.61875 -21.5775 22.2375 -21.875 22.875 C-23 25 -23 25 -25 27 C-25.13221689 19.86028788 -22.57067013 16.53988536 -17.69140625 11.47265625 C-5.20379147 0 -5.20379147 0 0 0 Z " fill="#62BBEA" transform="translate(64,241)"/>
<path d="M0 0 C0.99 0 1.98 0 3 0 C3 0.66 3 1.32 3 2 C3.58136719 2.14179688 4.16273438 2.28359375 4.76171875 2.4296875 C17.45284483 5.66337756 23.99328972 14.33957599 31 25 C31.7578125 27.36328125 31.7578125 27.36328125 32 29 C29.22589786 28.61736522 28.23112328 28.28659286 26.4375 26.0625 C25.963125 25.381875 25.48875 24.70125 25 24 C24.01 23.34 23.02 22.68 22 22 C21.87625 21.01 21.7525 20.02 21.625 19 C21.41875 18.01 21.2125 17.02 21 16 C18.60470331 14.67518454 18.60470331 14.67518454 16 14 C14 12 14 12 13.625 10 C13.17803689 7.84801686 13.17803689 7.84801686 11.1875 6.75 C8.75478604 5.78378378 8.75478604 5.78378378 5 6 C4.67 5.34 4.34 4.68 4 4 C3.01 3.67 2.02 3.34 1 3 C0.67 2.01 0.34 1.02 0 0 Z " fill="#496BE3" transform="translate(154,25)"/>
<path d="M0 0 C0.66 0.33 1.32 0.66 2 1 C-5.11380763 12.49623926 -13.85841829 24.06965111 -25 32 C-25.66 32 -26.32 32 -27 32 C-27 31.34 -27 30.68 -27 30 C-26.34 30 -25.68 30 -25 30 C-25 29.34 -25 28.68 -25 28 C-24.01 28 -23.02 28 -22 28 C-21.71125 27.401875 -21.4225 26.80375 -21.125 26.1875 C-20 24 -20 24 -18 21 C-17.01 21 -16.02 21 -15 21 C-15 20.01 -15 19.02 -15 18 C-14.01 17.34 -13.02 16.68 -12 16 C-11.4266266 13.87104283 -11.4266266 13.87104283 -11.1875 11.5 C-10.73828125 9.06640625 -10.73828125 9.06640625 -10 7 C-6.875 5.4375 -6.875 5.4375 -4 5 C-4 4.01 -4 3.02 -4 2 C-2.68 2 -1.36 2 0 2 C0 1.34 0 0.68 0 0 Z " fill="#31BAEB" transform="translate(373,330)"/>
<path d="M0 0 C0.33 0 0.66 0 1 0 C1 16.5 1 33 1 50 C0.01 49.34 -0.98 48.68 -2 48 C-2.58203125 44.8125 -2.58203125 44.8125 -2.8125 41 C-2.90144531 39.741875 -2.99039063 38.48375 -3.08203125 37.1875 C-3 34 -3 34 -1 32 C-0.52262811 26.28771945 -0.70670875 20.42950546 -1.5 14.75 C-2.06223948 10.53320392 -2.51934131 6.2427544 -2 2 C-1.34 1.34 -0.68 0.68 0 0 Z " fill="#328AF5" transform="translate(196,127)"/>
<path d="M0 0 C1.8125 0.1875 1.8125 0.1875 4 1 C4.4125 1.763125 4.825 2.52625 5.25 3.3125 C7.43260763 6.66436172 9.53254142 7.44424858 13.16015625 8.91015625 C15.45571162 10.26994382 15.88702779 11.62723797 17 14 C19.53770003 15.28254644 19.53770003 15.28254644 22 16 C22 16.99 22 17.98 22 19 C22.9075 19.2475 23.815 19.495 24.75 19.75 C28.12496123 21.04806201 29.74102121 22.21971841 32 25 C32 25.66 32 26.32 32 27 C26.92013952 25.64537054 23.27846923 23.26737389 19.25 20 C18.64381836 19.51523193 18.03763672 19.03046387 17.41308594 18.53100586 C2.87821869 6.72094684 2.87821869 6.72094684 0 0 Z " fill="#44C2EC" transform="translate(216,343)"/>
<path d="M0 0 C15.00780014 -0.35842266 29.25853279 0.0481925 44 3 C44 3.66 44 4.32 44 5 C46.475 5.495 46.475 5.495 49 6 C49 6.33 49 6.66 49 7 C47.02 7 45.04 7 43 7 C43 6.34 43 5.68 43 5 C39.37114676 4.84850702 39.37114676 4.84850702 36 6 C36 5.01 36 4.02 36 3 C31.05 3.66 26.1 4.32 21 5 C20.67 4.01 20.34 3.02 20 2 C18.5629191 1.94577053 17.12524538 1.90710277 15.6875 1.875 C14.48673828 1.84019531 14.48673828 1.84019531 13.26171875 1.8046875 C10.71611424 1.84182678 10.71611424 1.84182678 8 4 C8 3.34 8 2.68 8 2 C5.69 2 3.38 2 1 2 C0.67 2.66 0.34 3.32 0 4 C0 2.68 0 1.36 0 0 Z " fill="#4764F0" transform="translate(92,10)"/>
<path d="M0 0 C0.98120464 3.05263664 0.98120464 4.94736336 0 8 C-0.66 8 -1.32 8 -2 8 C-2.33 9.32 -2.66 10.64 -3 12 C-3.33 12 -3.66 12 -4 12 C-4.226875 13.051875 -4.45375 14.10375 -4.6875 15.1875 C-5.64146213 19.06511586 -7.01388049 22.6706608 -8.5 26.375 C-10.67136442 31.86426051 -12.11824141 37.16986484 -13 43 C-13.33 43 -13.66 43 -14 43 C-15.18852579 28.44055913 -8.1832719 11.72818064 0 0 Z " fill="#8AA6E8" transform="translate(26,49)"/>
<path d="M0 0 C2.23436006 2.05045564 3.58029964 3.84127042 4.7890625 6.6171875 C5.09070313 7.30683594 5.39234375 7.99648438 5.703125 8.70703125 C6.00734375 9.42246094 6.3115625 10.13789062 6.625 10.875 C6.93695313 11.58269531 7.24890625 12.29039063 7.5703125 13.01953125 C10.1242864 18.93110014 11.1337718 23.8267662 11.0625 30.3125 C11.05347656 31.38113281 11.04445312 32.44976562 11.03515625 33.55078125 C11.02355469 34.35902344 11.01195312 35.16726562 11 36 C7.84426586 29.79460682 6.76134306 24.92105136 7 18 C6.34 18 5.68 18 5 18 C2.77908549 13.70623194 1.76234292 9.76464323 1 5 C0.67364302 3.33195323 0.34274406 1.66475686 0 0 Z " fill="#7793E8" transform="translate(186,54)"/>
<path d="M0 0 C0.33 0 0.66 0 1 0 C0.34 12.54 -0.32 25.08 -1 38 C-1.66 38 -2.32 38 -3 38 C-3.85695967 32.11599345 -4.12539234 26.44090708 -4.0625 20.5 C-4.05798828 19.67757812 -4.05347656 18.85515625 -4.04882812 18.0078125 C-4.03718489 16.00517604 -4.01925556 14.00257773 -4 12 C-3.34 12 -2.68 12 -2 12 C-1.93941406 11.30132812 -1.87882813 10.60265625 -1.81640625 9.8828125 C-1.69072266 8.51769531 -1.69072266 8.51769531 -1.5625 7.125 C-1.48128906 6.22007813 -1.40007813 5.31515625 -1.31640625 4.3828125 C-1 2 -1 2 0 0 Z " fill="#7194E6" transform="translate(15,80)"/>
<path d="M0 0 C26.4 0 52.8 0 80 0 C77.08235 1.9451 75.37462715 2.45276317 72 3 C72 2.34 72 1.68 72 1 C48.24 1 24.48 1 0 1 C0 0.67 0 0.34 0 0 Z " fill="#2A90EC" transform="translate(216,196)"/>
<path d="M0 0 C6.46012473 5.921781 10.77743427 14.03197419 11.875 22.8125 C11.91625 23.864375 11.9575 24.91625 12 26 C8.34366201 22.50985919 6.54740411 19.05097831 4.875 14.3125 C4.52179688 13.31863281 4.16859375 12.32476562 3.8046875 11.30078125 C3.53914062 10.54152344 3.27359375 9.78226562 3 9 C2.01 9 1.02 9 0 9 C-1.4606285 6.35261084 -2 5.10551666 -2 2 C-1.34 2 -0.68 2 0 2 C0 1.34 0 0.68 0 0 Z " fill="#68BEEC" transform="translate(145,259)"/>
<path d="M0 0 C0.99 0.33 1.98 0.66 3 1 C-8.9866559 10.2278224 -22.06229369 13.19296422 -36.875 13.0625 C-38.33679688 13.05573242 -38.33679688 13.05573242 -39.828125 13.04882812 C-42.21881434 13.03710906 -44.6093744 13.02070219 -47 13 C-47 12.67 -47 12.34 -47 12 C-45.87464844 11.96261719 -44.74929687 11.92523438 -43.58984375 11.88671875 C-26.67532077 12.03998991 -26.67532077 12.03998991 -12 6 C-10.27599703 5.25184777 -8.55025172 4.50685881 -6.80859375 3.80078125 C-4.78136643 2.95704041 -4.78136643 2.95704041 -2.25 1.25 C-1.5075 0.8375 -0.765 0.425 0 0 Z " fill="#53C2E6" transform="translate(129,350)"/>
<path d="M0 0 C-1.65 1.32 -3.3 2.64 -5 4 C-5.66 3.67 -6.32 3.34 -7 3 C-13.27108822 3.51745718 -16.81725139 5.2021413 -21 10 C-24.32604951 11.10868317 -27.53058454 11.54177532 -31 12 C-31 11.01 -31 10.02 -31 9 C-30.34 9 -29.68 9 -29 9 C-29 8.34 -29 7.68 -29 7 C-27.948125 6.9175 -26.89625 6.835 -25.8125 6.75 C-22.00056374 6.31075853 -22.00056374 6.31075853 -19.625 4.0625 C-14.010953 -0.34853692 -6.88036493 -0.25019509 0 0 Z " fill="#4965ED" transform="translate(89,12)"/>
<path d="M0 0 C4.41722431 0.55215304 8.1112341 1.73224662 12.16796875 3.4765625 C14.20550671 4.24521105 14.20550671 4.24521105 17 3 C19.1875 3.9375 19.1875 3.9375 21 5 C21 5.99 21 6.98 21 8 C22.32 8.66 23.64 9.32 25 10 C17.63904818 9.68676801 11.69116911 8.06085395 5 5 C5 4.34 5 3.68 5 3 C2.525 2.01 2.525 2.01 0 1 C0 0.67 0 0.34 0 0 Z " fill="#509CE8" transform="translate(65,183)"/>
<path d="M0 0 C0.66 0 1.32 0 2 0 C2 0.99 2 1.98 2 3 C2.99 3 3.98 3 5 3 C10.74031891 15.48519362 10.74031891 15.48519362 10 22 C9.01 21.67 8.02 21.34 7 21 C6.00994053 18.67615122 5.19110825 16.4612089 4.4375 14.0625 C2.9773339 9.11759297 2.9773339 9.11759297 0 5 C-0.125 2.375 -0.125 2.375 0 0 Z " fill="#3DA1E5" transform="translate(371,241)"/>
<path d="M0 0 C0.99 0 1.98 0 3 0 C3 1.98 3 3.96 3 6 C3.66 6 4.32 6 5 6 C5 6.66 5 7.32 5 8 C5.66 8 6.32 8 7 8 C7.86555948 10.09950586 8.71711277 12.2047907 9.5625 14.3125 C10.27599609 16.07013672 10.27599609 16.07013672 11.00390625 17.86328125 C12 21 12 21 11 24 C0 7.74719101 0 7.74719101 0 0 Z " fill="#48BDE4" transform="translate(30,314)"/>
<path d="M0 0 C0 0.99 0 1.98 0 3 C-0.99 3.33 -1.98 3.66 -3 4 C-3 4.99 -3 5.98 -3 7 C-3.99 7 -4.98 7 -6 7 C-6.433125 7.8971875 -6.433125 7.8971875 -6.875 8.8125 C-8 11 -8 11 -10 14 C-10.99 14 -11.98 14 -13 14 C-13 14.66 -13 15.32 -13 16 C-13.66 16 -14.32 16 -15 16 C-15 16.66 -15 17.32 -15 18 C-16.28913487 18.67154933 -17.58140204 19.33708859 -18.875 20 C-19.59429687 20.37125 -20.31359375 20.7425 -21.0546875 21.125 C-23 22 -23 22 -25 22 C-25 20.68 -25 19.36 -25 18 C-22.36 17.34 -19.72 16.68 -17 16 C-16.67 14.68 -16.34 13.36 -16 12 C-14.68 12 -13.36 12 -12 12 C-12 11.34 -12 10.68 -12 10 C-11.38125 9.731875 -10.7625 9.46375 -10.125 9.1875 C-7.7004767 8.04443152 -7.7004767 8.04443152 -6 5 C-5.34 5 -4.68 5 -4 5 C-4 4.34 -4 3.68 -4 3 C-2 1.375 -2 1.375 0 0 Z " fill="#1ABFF2" transform="translate(361,344)"/>
<path d="M0 0 C4.10839064 1.45002023 7.50344613 3.3979134 11 6 C11 6.66 11 7.32 11 8 C11.66 8 12.32 8 13 8 C13 8.66 13 9.32 13 10 C13.66 10 14.32 10 15 10 C15.66 11.32 16.32 12.64 17 14 C17.99 14 18.98 14 20 14 C20 14.99 20 15.98 20 17 C11.76681183 14.19085413 4.12588533 7.66235847 0 0 Z " fill="#5DC6E9" transform="translate(42,338)"/>
<path d="M0 0 C0.66 0.66 1.32 1.32 2 2 C1.625 5.125 1.625 5.125 1 8 C-0.65 8.33 -2.3 8.66 -4 9 C-4.226875 9.94875 -4.45375 10.8975 -4.6875 11.875 C-6 15 -6 15 -8.625 16.375 C-9.800625 16.684375 -9.800625 16.684375 -11 17 C-10.67 14.36 -10.34 11.72 -10 9 C-8.68 8.67 -7.36 8.34 -6 8 C-5.67 6.68 -5.34 5.36 -5 4 C-4.360625 3.896875 -3.72125 3.79375 -3.0625 3.6875 C-2.381875 3.460625 -1.70125 3.23375 -1 3 C-0.67 2.01 -0.34 1.02 0 0 Z " fill="#436BF2" transform="translate(37,40)"/>
<path d="M0 0 C0.33 0.66 0.66 1.32 1 2 C-3.64908376 10.95654155 -9.92545659 18.94409244 -18 25 C-18.66 25 -19.32 25 -20 25 C-19.1875 22.5625 -19.1875 22.5625 -18 20 C-17.01 19.67 -16.02 19.34 -15 19 C-13.18653734 17.1355719 -13.18653734 17.1355719 -11.4375 14.9375 C-10.33498812 13.58840481 -9.19689312 12.26611103 -8 11 C-7.34 11 -6.68 11 -6 11 C-5.71125 10.0925 -5.4225 9.185 -5.125 8.25 C-2.74418605 1.37209302 -2.74418605 1.37209302 0 0 Z " fill="#4EBDE4" transform="translate(152,325)"/>
<path d="M0 0 C0.268125 0.598125 0.53625 1.19625 0.8125 1.8125 C1.83989003 4.03293378 1.83989003 4.03293378 3.5625 5.28125 C5.6193332 7.74050709 5.29870921 9.53657242 5.1875 12.6875 C5.16042969 13.68136719 5.13335937 14.67523438 5.10546875 15.69921875 C5.07066406 16.45847656 5.03585937 17.21773438 5 18 C5.66 18 6.32 18 7 18 C7.1953125 24.0546875 7.1953125 24.0546875 7 26 C6.34 26.66 5.68 27.32 5 28 C2.55010899 24.25764681 2.76913857 20.55774581 2.875 16.25 C2.88402344 15.55261719 2.89304687 14.85523438 2.90234375 14.13671875 C2.92580112 12.42433042 2.96166896 10.71211996 3 9 C2.01 8.67 1.02 8.34 0 8 C0 5.36 0 2.72 0 0 Z " fill="#29A8EF" transform="translate(376,256)"/>
<path d="M0 0 C0 0.66 0 1.32 0 2 C-1.4609375 3.2890625 -1.4609375 3.2890625 -3.375 4.625 C-4.31472656 5.29402344 -4.31472656 5.29402344 -5.2734375 5.9765625 C-7 7 -7 7 -9 7 C-9.04125 7.9075 -9.0825 8.815 -9.125 9.75 C-10 13 -10 13 -13.0625 15.375 C-14.031875 15.91125 -15.00125 16.4475 -16 17 C-15.7117511 11.09089751 -13.21321067 7.86679113 -9 4 C-3.34604106 0 -3.34604106 0 0 0 Z " fill="#33A3E9" transform="translate(64,241)"/>
<path d="M0 0 C10.7689671 0.85018161 18.06006423 7.30572338 25 15 C24.67 15.66 24.34 16.32 24 17 C23.5153125 16.45730469 23.030625 15.91460937 22.53125 15.35546875 C17.95295183 10.4690159 14.44953098 7.84272314 8 6 C8 5.34 8 4.68 8 4 C6.8553125 4.12375 6.8553125 4.12375 5.6875 4.25 C3 4 3 4 1.1875 2 C0.5996875 1.01 0.5996875 1.01 0 0 Z " fill="#5FB5EA" transform="translate(120,242)"/>
<path d="M0 0 C1.65 0 3.3 0 5 0 C5 0.66 5 1.32 5 2 C5.99 2 6.98 2 8 2 C8 2.66 8 3.32 8 4 C8.66 4 9.32 4 10 4 C10 4.66 10 5.32 10 6 C10.67546875 6.06058594 11.3509375 6.12117188 12.046875 6.18359375 C12.93890625 6.26738281 13.8309375 6.35117187 14.75 6.4375 C15.63171875 6.51871094 16.5134375 6.59992188 17.421875 6.68359375 C19.69350452 6.96238465 21.79851823 7.38790577 24 8 C23.67 8.66 23.34 9.32 23 10 C21.58344207 10.0272415 20.16672955 10.04650467 18.75 10.0625 C17.56664062 10.07990234 17.56664062 10.07990234 16.359375 10.09765625 C14.09308998 10.00385306 12.1711105 9.63241063 10 9 C10 8.34 10 7.68 10 7 C9.01 6.67 8.02 6.34 7 6 C6.67 5.34 6.34 4.68 6 4 C4.02477154 2.95191959 2.02518491 1.9479589 0 1 C0 0.67 0 0.34 0 0 Z " fill="#23BEED" transform="translate(238,361)"/>
<path d="M0 0 C0.66 0.33 1.32 0.66 2 1 C-1.76774711 4.88192126 -5.62797789 8.79531881 -10 12 C-10.66 12 -11.32 12 -12 12 C-12.33 13.32 -12.66 14.64 -13 16 C-14.32 16.33 -15.64 16.66 -17 17 C-15.64914932 12.86798617 -13.93853539 10.61309671 -10.6875 7.75 C-9.92824219 7.06421875 -9.16898438 6.3784375 -8.38671875 5.671875 C-5.84968197 3.89470358 -4.04710089 3.36673073 -1 3 C-0.67 2.01 -0.34 1.02 0 0 Z " fill="#4F6CE2" transform="translate(44,32)"/>
<path d="M0 0 C4.29 0.33 8.58 0.66 13 1 C13 1.66 13 2.32 13 3 C13.66 3 14.32 3 15 3 C15 3.66 15 4.32 15 5 C17.64 5.33 20.28 5.66 23 6 C23 6.66 23 7.32 23 8 C17.14016367 7.48334032 12.39106117 6.24718923 7 3.9375 C6.32066406 3.65583984 5.64132813 3.37417969 4.94140625 3.08398438 C3.29060213 2.39808689 1.64474531 1.70030171 0 1 C0 0.67 0 0.34 0 0 Z " fill="#51C3E9" transform="translate(248,370)"/>
<path d="M0 0 C4.36360704 2.05830521 8.302555 4.72363456 12.34375 7.34375 C14.52757696 8.70543034 16.69945452 9.85990667 19 11 C20.75 12.5 20.75 12.5 22 14 C22 14.66 22 15.32 22 16 C16.56748108 14.59187776 13.0176666 12.02997912 8.75 8.5625 C8.12609375 8.07201172 7.5021875 7.58152344 6.859375 7.07617188 C4.01105095 4.80180968 2.05278191 3.07917287 0 0 Z " fill="#65C8E8" transform="translate(226,354)"/>
<path d="M0 0 C1.42944945 2.35438733 2.08661261 3.48032433 1.625 6.25 C1.41875 6.8275 1.2125 7.405 1 8 C0.34 8 -0.32 8 -1 8 C-0.67 8.99 -0.34 9.98 0 11 C-0.68834863 12.30786239 -1.38186296 13.61320405 -2.09765625 14.90625 C-4.15068617 19.66999043 -4.94142221 24.93984803 -6 30 C-6.33 30 -6.66 30 -7 30 C-6.78402436 22.40845624 -6.5011391 15.79789374 -2.98828125 8.9765625 C-1.53931604 6.07863207 -0.79961425 3.1318225 0 0 Z " fill="#436FED" transform="translate(22,60)"/>
<path d="M0 0 C0.33 0 0.66 0 1 0 C1 8.58 1 17.16 1 26 C0.67 26 0.34 26 0 26 C-2.48527582 9.15781833 -2.48527582 9.15781833 -2 2 C-1.34 1.34 -0.68 0.68 0 0 Z " fill="#3982F1" transform="translate(196,127)"/>
<path d="M0 0 C0.99 0 1.98 0 3 0 C3 0.66 3 1.32 3 2 C3.57621094 2.13921875 4.15242187 2.2784375 4.74609375 2.421875 C14.11963519 4.82618026 14.11963519 4.82618026 16.875 8.5 C17.24625 9.325 17.6175 10.15 18 11 C18.99 12.485 18.99 12.485 20 14 C17.03 13.505 17.03 13.505 14 13 C13.9175 12.21625 13.835 11.4325 13.75 10.625 C13.26606675 7.90824733 13.26606675 7.90824733 11.1875 6.6875 C8.74616953 5.8001156 8.74616953 5.8001156 5 6 C4.67 5.34 4.34 4.68 4 4 C3.01 3.67 2.02 3.34 1 3 C0.67 2.01 0.34 1.02 0 0 Z " fill="#5F76E4" transform="translate(154,25)"/>
<path d="M0 0 C6.24496461 1.24899292 10.07510768 5.21840529 14 10 C14 10.66 14 11.32 14 12 C12.35 12.33 10.7 12.66 9 13 C9 12.34 9 11.68 9 11 C8.34 11 7.68 11 7 11 C7 9.68 7 8.36 7 7 C6.34 7 5.68 7 5 7 C5 5.68 5 4.36 5 3 C2.525 2.01 2.525 2.01 0 1 C0 0.67 0 0.34 0 0 Z " fill="#2CA5EC" transform="translate(131,249)"/>
<path d="M0 0 C0.33 0 0.66 0 1 0 C1.054138 2.24973447 1.09285491 4.49984383 1.125 6.75 C1.14820313 8.00296875 1.17140625 9.2559375 1.1953125 10.546875 C1.01537302 13.72820492 0.68998582 15.36521896 -1 18 C-3 16 -3 16 -3.1875 12.1875 C-3.11266813 9.02729249 -2.76920251 6.07681004 -2 3 C-1.34 3 -0.68 3 0 3 C0 2.01 0 1.02 0 0 Z " fill="#25B0EB" transform="translate(382,288)"/>
<path d="M0 0 C0.99 0 1.98 0 3 0 C6 6.5 6 6.5 6 11 C6.66 11 7.32 11 8 11 C8.28875 11.804375 8.5775 12.60875 8.875 13.4375 C9.73262568 16.1326468 9.73262568 16.1326468 12 17 C12.625 19.5625 12.625 19.5625 13 22 C8.79339629 18.1912187 6.25967451 14.34459093 3.6875 9.3125 C3.32849609 8.63638672 2.96949219 7.96027344 2.59960938 7.26367188 C0 2.28727679 0 2.28727679 0 0 Z " fill="#7CABEC" transform="translate(18,136)"/>
<path d="M0 0 C0 3 0 3 -2.265625 5.59375 C-3.25278939 6.57027111 -4.2479569 7.53875255 -5.25 8.5 C-5.98669922 9.22896484 -5.98669922 9.22896484 -6.73828125 9.97265625 C-13.9188096 17 -13.9188096 17 -17 17 C-17 16.34 -17 15.68 -17 15 C-16.34 15 -15.68 15 -15 15 C-15 14.34 -15 13.68 -15 13 C-14.01 13 -13.02 13 -12 13 C-11.71125 12.401875 -11.4225 11.80375 -11.125 11.1875 C-10 9 -10 9 -8 6 C-7.01 6 -6.02 6 -5 6 C-5 5.01 -5 4.02 -5 3 C-2.5 1.3125 -2.5 1.3125 0 0 Z " fill="#4FBDE3" transform="translate(363,345)"/>
<path d="M0 0 C9.38037263 0.81568458 17.29547477 4.74887107 25 10 C23 11 23 11 20.6171875 10.22265625 C19.71226563 9.83980469 18.80734375 9.45695313 17.875 9.0625 C16.96492188 8.68222656 16.05484375 8.30195313 15.1171875 7.91015625 C14.06917969 7.45962891 14.06917969 7.45962891 13 7 C13 6.34 13 5.68 13 5 C10.36 4.67 7.72 4.34 5 4 C5 3.34 5 2.68 5 2 C3.35 1.67 1.7 1.34 0 1 C0 0.67 0 0.34 0 0 Z " fill="#8CCEF0" transform="translate(107,235)"/>
<path d="M0 0 C-0.73605469 0.24234375 -1.47210938 0.4846875 -2.23046875 0.734375 C-8.36723212 2.77912959 -8.36723212 2.77912959 -13.75 6.25 C-16.85250475 8.66305925 -19.18185707 8.29946219 -23 8 C-19.21748124 4.64812854 -15.69121373 2.8703655 -10.9375 1.1875 C-9.12572266 0.52814453 -9.12572266 0.52814453 -7.27734375 -0.14453125 C-4.20517557 -0.94644404 -2.8793063 -1.17039134 0 0 Z " fill="#8D9CE7" transform="translate(83,11)"/>
<path d="M0 0 C2.55844378 3.83766567 3.12495165 6.38297732 3.09765625 10.88671875 C3.09282227 12.2934082 3.09282227 12.2934082 3.08789062 13.72851562 C3.07951172 14.70498047 3.07113281 15.68144531 3.0625 16.6875 C3.05798828 17.67556641 3.05347656 18.66363281 3.04882812 19.68164062 C3.03704303 22.12115474 3.02059011 24.56054689 3 27 C2.67 27 2.34 27 2 27 C1.66078548 23.81309767 1.32970583 20.62539896 1 17.4375 C0.90460938 16.54224609 0.80921875 15.64699219 0.7109375 14.72460938 C0.20432035 9.78509212 -0.10897382 4.96511986 0 0 Z " fill="#34ACE8" transform="translate(154,279)"/>
<path d="M0 0 C-13.8630137 10 -13.8630137 10 -18 10 C-18 8 -18 8 -16.8125 6.375 C-14.44439338 4.57850533 -12.90102749 4.76478155 -10 5 C-10 4.34 -10 3.68 -10 3 C-3.375 -1.125 -3.375 -1.125 0 0 Z " fill="#52C1E9" transform="translate(346,363)"/>
<path d="M0 0 C0.66 0 1.32 0 2 0 C2.69761537 2.60183588 3.38337774 5.20583602 4.0625 7.8125 C4.26166016 8.55048828 4.46082031 9.28847656 4.66601562 10.04882812 C6.11328125 15.66015625 6.11328125 15.66015625 5 19 C-0.74031891 6.51480638 -0.74031891 6.51480638 0 0 Z " fill="#6CC9EA" transform="translate(201,309)"/>
<path d="M0 0 C3.37462715 0.54723683 5.08235 1.0549 8 3 C8.825 3.144375 9.65 3.28875 10.5 3.4375 C13.32081649 4.07218371 14.13787224 4.87185399 16 7 C16.66 7.33 17.32 7.66 18 8 C18 8.66 18 9.32 18 10 C11.18755248 8.16402123 5.55662233 5.38749848 0 1 C0 0.67 0 0.34 0 0 Z " fill="#6CA9E8" transform="translate(52,178)"/>
<path d="M0 0 C1.79461184 5.38383551 0.18667462 11.87201788 -1.8046875 17.12109375 C-2.625 18.75 -2.625 18.75 -4 21 C-4.33 21 -4.66 21 -5 21 C-4.125 13.125 -4.125 13.125 -3 12 C-2.63021574 10.36197128 -2.30331217 8.71412956 -2 7.0625 C-1.1070615 2.21412301 -1.1070615 2.21412301 0 0 Z " fill="#43B6DE" transform="translate(380,308)"/>
<path d="M0 0 C1.36682561 2.73365122 0.84683011 4.10666379 0 7 C-0.45503906 7.40992188 -0.91007812 7.81984375 -1.37890625 8.2421875 C-3.69679505 10.7555609 -4.51717694 13.49283434 -5.6875 16.6875 C-6.34298828 18.45673828 -6.34298828 18.45673828 -7.01171875 20.26171875 C-7.33785156 21.16535156 -7.66398437 22.06898438 -8 23 C-9.98135871 18.01621428 -7.2951406 13.82351254 -5.4140625 9.15234375 C-3.88925336 5.75311453 -2.2676009 2.93948264 0 0 Z " fill="#8FD5F2" transform="translate(39,262)"/>
<path d="M0 0 C0.66 0.33 1.32 0.66 2 1 C0.625 2.5 0.625 2.5 -1 4 C-1.66 4 -2.32 4 -3 4 C-3 3.34 -3 2.68 -3 2 C-2.01 1.34 -1.02 0.68 0 0 Z M-5 5 C-4 8 -4 8 -5 11 C-7.0625 11.6875 -7.0625 11.6875 -9 12 C-9.12375 13.134375 -9.2475 14.26875 -9.375 15.4375 C-9.58125 16.613125 -9.7875 17.78875 -10 19 C-10.99 19.495 -10.99 19.495 -12 20 C-11.1377511 13.37226593 -10.35533057 9.22789256 -5 5 Z " fill="#29AAF0" transform="translate(46,260)"/>
<path d="M0 0 C3.8655948 0 5.97460179 0.02696255 8.8359375 2.7421875 C10.43483788 4.79148235 11.86946194 6.6568687 13 9 C12.67 9.99 12.34 10.98 12 12 C11.38125 11.3503125 11.38125 11.3503125 10.75 10.6875 C9.02780499 8.93022004 9.02780499 8.93022004 6.875 7.5625 C4.71902799 5.76585665 4.37648417 4.72951023 4 2 C2.68 1.67 1.36 1.34 0 1 C0 0.67 0 0.34 0 0 Z " fill="#54A5E6" transform="translate(347,215)"/>
<path d="M0 0 C0.55945313 0.13277344 1.11890625 0.26554687 1.6953125 0.40234375 C9.09350026 2.03184813 16.44570812 2.58636442 24 3 C24 3.33 24 3.66 24 4 C7.29157175 4.18451025 7.29157175 4.18451025 -1 3 C-0.67 2.01 -0.34 1.02 0 0 Z " fill="#23C1E6" transform="translate(272,375)"/>
<path d="M0 0 C4.92307692 4.18461538 4.92307692 4.18461538 5.3125 8.3125 C5.209375 9.199375 5.10625 10.08625 5 11 C4.01 10.01 3.02 9.02 2 8 C1.01 8.495 1.01 8.495 0 9 C-1.4606285 6.35261084 -2 5.10551666 -2 2 C-1.34 2 -0.68 2 0 2 C0 1.34 0 0.68 0 0 Z " fill="#4FB4EC" transform="translate(145,259)"/>
<path d="M0 0 C0 0.66 0 1.32 0 2 C-0.66 2 -1.32 2 -2 2 C-2.33 3.32 -2.66 4.64 -3 6 C-3.99 6 -4.98 6 -6 6 C-6.33 6.99 -6.66 7.98 -7 9 C-8.32 8.34 -9.64 7.68 -11 7 C-4.36842105 0 -4.36842105 0 0 0 Z " fill="#7D90E4" transform="translate(60,19)"/>
<path d="M0 0 C2 1 4 2 6 3 C5.67 4.65 5.34 6.3 5 8 C2.5625 7.3125 2.5625 7.3125 0 6 C-0.875 3.4375 -0.875 3.4375 -1 1 C-0.67 0.67 -0.34 0.34 0 0 Z " fill="#3888E9" transform="translate(31,152)"/>
<path d="M0 0 C4.84659077 0.59104765 8.60748167 1.97944157 13 4 C12.01 5.485 12.01 5.485 11 7 C9.02 6.34 7.04 5.68 5 5 C5 4.34 5 3.68 5 3 C2.525 2.01 2.525 2.01 0 1 C0 0.67 0 0.34 0 0 Z " fill="#4796EB" transform="translate(65,183)"/>
<path d="M0 0 C2 2 2 2 2 6 C2.66 6 3.32 6 4 6 C4 9.96 4 13.92 4 18 C0.82063397 11.64126793 -0.24206094 7.01976731 0 0 Z " fill="#567EE2" transform="translate(193,72)"/>
<path d="M0 0 C4.52615993 3.67832017 8.39424999 7.41086363 12 12 C11.67 12.66 11.34 13.32 11 14 C8.5 12.625 8.5 12.625 6 11 C6 10.34 6 9.68 6 9 C5.01 8.67 4.02 8.34 3 8 C3 7.01 3 6.02 3 5 C2.0206121 3.97980427 1.02104551 2.97850195 0 2 C0 1.34 0 0.68 0 0 Z " fill="#7C93EB" transform="translate(169,32)"/>
<path d="M0 0 C-3.95140486 2.3243558 -7.71064125 4.35995106 -12 6 C-12.33 6.33 -12.66 6.66 -13 7 C-14.99958364 7.04080783 -17.00045254 7.04254356 -19 7 C-18.401875 6.71125 -17.80375 6.4225 -17.1875 6.125 C-14.80672208 4.95257974 -14.80672208 4.95257974 -12 3 C-11.01 3 -10.02 3 -9 3 C-9 2.34 -9 1.68 -9 1 C-5.57367167 -0.61798838 -3.61944899 -1.34053666 0 0 Z " fill="#1EBDF2" transform="translate(128,352)"/>
<path d="M0 0 C0.33 1.32 0.66 2.64 1 4 C1.66 4 2.32 4 3 4 C3.33 5.65 3.66 7.3 4 9 C4.99 9 5.98 9 7 9 C7.33 11.31 7.66 13.62 8 16 C3.90431353 12.5110819 1.00545912 7.97243974 -1 3 C-0.67 2.01 -0.34 1.02 0 0 Z " fill="#69CBEA" transform="translate(208,327)"/>
<path d="M0 0 C0.80566406 0.09345703 1.61132812 0.18691406 2.44140625 0.28320312 C3.28316406 0.38697266 4.12492187 0.49074219 4.9921875 0.59765625 C5.84167969 0.69755859 6.69117187 0.79746094 7.56640625 0.90039062 C9.66731027 1.14825009 11.76733899 1.4035081 13.8671875 1.66015625 C13.8671875 1.99015625 13.8671875 2.32015625 13.8671875 2.66015625 C10.90861341 2.71394851 7.95101029 2.75372718 4.9921875 2.78515625 C3.72955078 2.81029297 3.72955078 2.81029297 2.44140625 2.8359375 C1.63574219 2.84238281 0.83007812 2.84882813 0 2.85546875 C-0.74362793 2.86594238 -1.48725586 2.87641602 -2.25341797 2.88720703 C-4.1328125 2.66015625 -4.1328125 2.66015625 -6.1328125 0.66015625 C-3.71746002 -0.54751999 -2.65434842 -0.31777411 0 0 Z " fill="#2AB9EC" transform="translate(86.1328125,359.33984375)"/>
<path d="M0 0 C0.99 0 1.98 0 3 0 C3.16435547 0.97839844 3.16435547 0.97839844 3.33203125 1.9765625 C4.27443191 7.17125885 5.52863932 11.29264632 8 16 C7.67 16.66 7.34 17.32 7 18 C6.01070539 16.13032395 5.03399531 14.25398622 4.0625 12.375 C3.24458984 10.80878906 3.24458984 10.80878906 2.41015625 9.2109375 C1.03330283 6.07583082 0.40157784 3.38545368 0 0 Z " fill="#8EDCF3" transform="translate(30,314)"/>
<path d="M0 0 C2.0625 0.4375 2.0625 0.4375 4 1 C4 1.66 4 2.32 4 3 C4.66 2.67 5.32 2.34 6 2 C6 1.34 6 0.68 6 0 C6.99 0.33 7.98 0.66 9 1 C9 2.65 9 4.3 9 6 C4.2482602 5.56802365 2.07999946 4.67230705 -1 1 C-0.67 0.67 -0.34 0.34 0 0 Z " fill="#328DEF" transform="translate(55,176)"/>
<path d="M0 0 C0.99 0 1.98 0 3 0 C5.66464729 5.22270869 6.32854177 8.0819503 5 14 C4.67 14 4.34 14 4 14 C3.87625 12.865625 3.7525 11.73125 3.625 10.5625 C3.41875 9.386875 3.2125 8.21125 3 7 C2.34 6.67 1.68 6.34 1 6 C0.375 2.9375 0.375 2.9375 0 0 Z " fill="#466BEB" transform="translate(183,54)"/>
<path d="M0 0 C-4.99065252 3.32710168 -10.92111612 5.58827908 -17 5 C-17 4.34 -17 3.68 -17 3 C-15.10614563 2.49255577 -13.20981334 1.99435426 -11.3125 1.5 C-9.72888672 1.08234375 -9.72888672 1.08234375 -8.11328125 0.65625 C-5.28857328 0.0608285 -2.87163292 -0.12786492 0 0 Z " fill="#4DC4E6" transform="translate(327,373)"/>
<path d="M0 0 C4.10958767 1.45044271 7.43258745 3.51110752 11 6 C9.3125 6.6875 9.3125 6.6875 7 7 C3.30194812 5.32707177 1.44626119 3.81287042 0 0 Z " fill="#48C1EA" transform="translate(42,338)"/>
<path d="M0 0 C0.33 0.66 0.66 1.32 1 2 C-0.36328125 4.56640625 -0.36328125 4.56640625 -2.3125 7.5625 C-3.26576172 9.04943359 -3.26576172 9.04943359 -4.23828125 10.56640625 C-6 13 -6 13 -8 14 C-8 13.01 -8 12.02 -8 11 C-7.34 11 -6.68 11 -6 11 C-5.71125 10.0925 -5.4225 9.185 -5.125 8.25 C-2.74418605 1.37209302 -2.74418605 1.37209302 0 0 Z " fill="#70CCE8" transform="translate(152,325)"/>
<path d="M0 0 C6.40140935 0.46555704 11.26769829 2.14711836 17 5 C14.21247638 6.39376181 12.47734485 5.73839757 9.4375 5.1875 C8.44621094 5.01605469 7.45492188 4.84460938 6.43359375 4.66796875 C5.22896484 4.33732422 5.22896484 4.33732422 4 4 C3.67 3.34 3.34 2.68 3 2 C2.01 1.34 1.02 0.68 0 0 Z " fill="#8FC7F3" transform="translate(314,196)"/>
<path d="M0 0 C2.875 0.625 2.875 0.625 6 2 C7.1875 4.875 7.1875 4.875 8 8 C9.51553153 10.30166675 9.51553153 10.30166675 11 12 C7.612801 10.5611898 5.6405896 8.77880501 3.25 6 C2.63640625 5.29875 2.0228125 4.5975 1.390625 3.875 C0 2 0 2 0 0 Z " fill="#83B8ED" transform="translate(31,158)"/>
<path d="M0 0 C12.26923077 1.26923077 12.26923077 1.26923077 16 5 C10.13190493 4.47606294 5.45126259 3.23891142 0 1 C0 0.67 0 0.34 0 0 Z " fill="#55C4E9" transform="translate(66,357)"/>
<path d="M0 0 C-0.63808594 0.27714844 -1.27617188 0.55429688 -1.93359375 0.83984375 C-2.75988281 1.20207031 -3.58617188 1.56429687 -4.4375 1.9375 C-5.26121094 2.29714844 -6.08492187 2.65679687 -6.93359375 3.02734375 C-8.94410117 3.83122323 -8.94410117 3.83122323 -10 5 C-11.99958364 5.04080783 -14.00045254 5.04254356 -16 5 C-14.54987453 2.09974906 -12.68687091 1.91293145 -9.6875 0.8125 C-8.72199219 0.44769531 -7.75648437 0.08289063 -6.76171875 -0.29296875 C-3.9652203 -1.008904 -2.66140462 -0.99249531 0 0 Z " fill="#8CCDEE" transform="translate(80,236)"/>
<path d="M0 0 C0 0.66 0 1.32 0 2 C-1.390625 3.32421875 -1.390625 3.32421875 -3.25 4.6875 C-3.85328125 5.14511719 -4.4565625 5.60273438 -5.078125 6.07421875 C-7 7 -7 7 -9.234375 6.64453125 C-9.81703125 6.43183594 -10.3996875 6.21914062 -11 6 C-9.54550599 4.9944239 -8.08627557 3.99569565 -6.625 3 C-5.40683594 2.1646875 -5.40683594 2.1646875 -4.1640625 1.3125 C-2 0 -2 0 0 0 Z " fill="#78C1E7" transform="translate(64,241)"/>
<path d="M0 0 C2.23495428 2.23495428 3.0024791 4.02414536 4.1875 6.9375 C4.55230469 7.81277344 4.91710937 8.68804687 5.29296875 9.58984375 C6 12 6 12 5 15 C1.65405342 9.81917949 0.43173504 6.15222436 0 0 Z " fill="#82C1ED" transform="translate(375,244)"/>
<path d="M0 0 C1.32 0 2.64 0 4 0 C3.8125 1.875 3.8125 1.875 3 4 C0.4375 5.25 0.4375 5.25 -2 6 C-2.66 5.34 -3.32 4.68 -4 4 C-2.68 3.34 -1.36 2.68 0 2 C0 1.34 0 0.68 0 0 Z " fill="#39A0E6" transform="translate(64,241)"/>
<path d="M0 0 C-0.33 0.99 -0.66 1.98 -1 3 C-3.97 3 -6.94 3 -10 3 C-10 2.34 -10 1.68 -10 1 C-6.52674819 -0.1577506 -3.63932552 -0.06866652 0 0 Z " fill="#14C5F6" transform="translate(262,368)"/>
<path d="M0 0 C1.13199353 0.9080162 2.25532363 1.82683826 3.375 2.75 C4.00148438 3.26046875 4.62796875 3.7709375 5.2734375 4.296875 C7.08312318 6.08199481 8.00117455 7.67949644 9 10 C6.625 9.8125 6.625 9.8125 4 9 C2.8125 6.6875 2.8125 6.6875 2 4 C1.34981977 2.65855008 0.6857884 1.32359983 0 0 Z " fill="#79BAED" transform="translate(356,219)"/>
<path d="M0 0 C0.99 0 1.98 0 3 0 C3 0.66 3 1.32 3 2 C3.556875 2.12375 4.11375 2.2475 4.6875 2.375 C7.22114364 3.05976855 9.57921032 3.99133763 12 5 C12 5.66 12 6.32 12 7 C9.6568787 6.74438677 7.32156597 6.40729228 5 6 C4.67 5.34 4.34 4.68 4 4 C3.01 3.67 2.02 3.34 1 3 C0.67 2.01 0.34 1.02 0 0 Z " fill="#4866EA" transform="translate(154,25)"/>
<path d="M0 0 C0.66 0 1.32 0 2 0 C2 0.66 2 1.32 2 2 C1.34 2 0.68 2 0 2 C0 1.34 0 0.68 0 0 Z M-4 2 C-2.68 2 -1.36 2 0 2 C-1 5 -1 5 -2.875 6.1875 C-5 7 -5 7 -8 7 C-6.25 4.5 -6.25 4.5 -4 2 Z " fill="#4665F2" transform="translate(54,25)"/>
<path d="M0 0 C2.375 0.625 2.375 0.625 5 2 C6.3125 5.125 6.3125 5.125 7 8 C4.0625 6.8125 4.0625 6.8125 1 5 C0.125 2.3125 0.125 2.3125 0 0 Z " fill="#27B7E8" transform="translate(41,333)"/>
<path d="M0 0 C0.66 0.33 1.32 0.66 2 1 C0.02 3.97 -1.96 6.94 -4 10 C-4.33 8.68 -4.66 7.36 -5 6 C-4.34 6 -3.68 6 -3 6 C-3 4.68 -3 3.36 -3 2 C-2.01 2 -1.02 2 0 2 C0 1.34 0 0.68 0 0 Z " fill="#60C3E7" transform="translate(373,330)"/>
<path d="M0 0 C3.53372712 1.96318174 6.24479785 4.04070881 9 7 C6.03 6.505 6.03 6.505 3 6 C2.67 4.68 2.34 3.36 2 2 C1.34 2 0.68 2 0 2 C0 1.34 0 0.68 0 0 Z " fill="#7AB8EC" transform="translate(344,209)"/>
<path d="M0 0 C3.46941546 0.45822468 6.67395049 0.89131683 10 2 C10.33 2.99 10.66 3.98 11 5 C8.03 4.505 8.03 4.505 5 4 C5 3.34 5 2.68 5 2 C3.35 1.67 1.7 1.34 0 1 C0 0.67 0 0.34 0 0 Z " fill="#7EC4EF" transform="translate(107,235)"/>
<path d="M0 0 C0 3.28176588 -0.47835901 5.10888212 -2 8 C-4.125 8.8125 -4.125 8.8125 -6 9 C-4.68775452 5.06326356 -3.08089673 2.77280706 0 0 Z " fill="#99B3E9" transform="translate(33,40)"/>
<path d="M0 0 C0.66 0.33 1.32 0.66 2 1 C0.27137715 5.55727842 -2.81669715 6.90834857 -7 9 C-5.44499019 5.18315774 -2.96404505 2.80804268 0 0 Z " fill="#B0C2EF" transform="translate(41,31)"/>
<path d="M0 0 C4.50066475 1.06795435 8.7494534 2.14038586 13 4 C9.52176885 5.15941038 7.54104422 4.70820884 4 4 C4 3.34 4 2.68 4 2 C2.68 1.67 1.36 1.34 0 1 C0 0.67 0 0.34 0 0 Z " fill="#97A7E9" transform="translate(132,11)"/>
<path d="M0 0 C0.99 0.33 1.98 0.66 3 1 C2.01 2.98 1.02 4.96 0 7 C-0.66 7 -1.32 7 -2 7 C-2 5.02 -2 3.04 -2 1 C-1.34 0.67 -0.68 0.34 0 0 Z " fill="#29B7EC" transform="translate(146,329)"/>
<path d="M0 0 C3.77545388 1.09068668 6.47043472 1.9083091 9 5 C5.625 4.75 5.625 4.75 2 4 C0.5625 1.9375 0.5625 1.9375 0 0 Z " fill="#7AB8EA" transform="translate(333,203)"/>
<path d="M0 0 C3.81684226 1.55500981 6.19195732 4.03595495 9 7 C5.21616321 6.07506212 3.43306306 5.60628829 1.125 2.375 C0.75375 1.59125 0.3825 0.8075 0 0 Z " fill="#7E90E9" transform="translate(157,23)"/>
<path d="M0 0 C0.66 0 1.32 0 2 0 C1.46930939 3.82097239 0.50298434 6.06171403 -2 9 C-1.125 1.125 -1.125 1.125 0 0 Z " fill="#6DC5EA" transform="translate(377,320)"/>
<path d="M0 0 C1.1725131 0.95117134 2.33787015 1.91117009 3.5 2.875 C4.47453125 3.67550781 4.47453125 3.67550781 5.46875 4.4921875 C5.9740625 4.98976563 6.479375 5.48734375 7 6 C7 6.66 7 7.32 7 8 C5.1875 7.8125 5.1875 7.8125 3 7 C0 2.82142857 0 2.82142857 0 0 Z " fill="#3EA3DC" transform="translate(138,253)"/>
<path d="M0 0 C3.28212246 0.43761633 4.84832931 1.52557871 7 4 C6.67 4.99 6.34 5.98 6 7 C5.5875 6.566875 5.175 6.13375 4.75 5.6875 C2.93945495 3.94161728 1.03525768 2.47380729 -1 1 C-0.67 0.67 -0.34 0.34 0 0 Z " fill="#349AE7" transform="translate(353,220)"/>
<path d="M0 0 C3.3125 -0.25 3.3125 -0.25 7 0 C8.9375 2 8.9375 2 10 4 C8.51882199 3.71872579 7.04006751 3.42466268 5.5625 3.125 C4.73878906 2.96257812 3.91507812 2.80015625 3.06640625 2.6328125 C2.38449219 2.42398438 1.70257813 2.21515625 1 2 C0.67 1.34 0.34 0.68 0 0 Z " fill="#3396EB" transform="translate(319,200)"/>
<path d="M0 0 C2.79872437 2.52788007 4.45773019 4.20411134 5 8 C3.68 7.67 2.36 7.34 1 7 C0.67 4.69 0.34 2.38 0 0 Z " fill="#778CE5" transform="translate(181,46)"/>
<path d="M0 0 C0.33 0.66 0.66 1.32 1 2 C1.66 2.33 2.32 2.66 3 3 C1.7934375 3.433125 1.7934375 3.433125 0.5625 3.875 C-2.1326468 4.73262568 -2.1326468 4.73262568 -3 7 C-3.66 7 -4.32 7 -5 7 C-4.67 5.68 -4.34 4.36 -4 3 C-3.01 3 -2.02 3 -1 3 C-0.67 2.01 -0.34 1.02 0 0 Z " fill="#4E71E3" transform="translate(32,45)"/>
<path d="M0 0 C0.33 1.32 0.66 2.64 1 4 C0.34 4 -0.32 4 -1 4 C-1 4.66 -1 5.32 -1 6 C-1.99 6 -2.98 6 -4 6 C-3.6875 4.125 -3.6875 4.125 -3 2 C-2.01 1.34 -1.02 0.68 0 0 Z " fill="#35B7EA" transform="translate(374,326)"/>
<path d="M0 0 C3.37462715 0.54723683 5.08235 1.0549 8 3 C8 3.66 8 4.32 8 5 C2.25 3.375 2.25 3.375 0 0 Z " fill="#81B1EC" transform="translate(52,178)"/>
<path d="M0 0 C0.96516243 3.00272755 1.22393475 5.04215769 0 8 C-0.99 8.33 -1.98 8.66 -3 9 C-2.69181644 7.68647977 -2.37832335 6.37420428 -2.0625 5.0625 C-1.88847656 4.33160156 -1.71445312 3.60070313 -1.53515625 2.84765625 C-1 1 -1 1 0 0 Z " fill="#8099E4" transform="translate(26,49)"/>
</svg>
